<svg id="Jax" xmlns="http://www.w3.org/2000/svg" xmlns:xlink="http://www.w3.org/1999/xlink" width="106.87" height="35.493" viewBox="0 0 106.87 35.493">
  <defs>
    <clipPath id="clip-path">
      <rect id="Rectangle_30" data-name="Rectangle 30" width="61.322" height="35.493" fill="none"/>
    </clipPath>
  </defs>
  <path id="Path_135" data-name="Path 135" d="M4.264,200.5l-3.4,5.886h6.8l3.4-5.886Z" transform="translate(-0.764 -176.897)" fill="#f6f6f6"/>
  <g id="Group_34" data-name="Group 34">
    <g id="Group_33" data-name="Group 33" clip-path="url(#clip-path)">
      <path id="Path_136" data-name="Path 136" d="M7.662,206.886H.866l-.433-.75,3.4-5.886.433-.25h6.8l.433.75-3.4,5.886Zm-5.93-1H7.373L10.195,201H4.552Z" transform="translate(-0.764 -176.897)" fill="#b3b3b3"/>
    </g>
  </g>
  <path id="Path_137" data-name="Path 137" d="M58.586,206.386h6.8l3.4-5.886h-6.8Z" transform="translate(-51.689 -176.897)" fill="#f6f6f6"/>
  <path id="Path_138" data-name="Path 138" d="M65.382,206.886h-6.8l-.433-.75,3.4-5.886.433-.25h6.8l.433.75-3.4,5.886Zm-5.93-1h5.641L67.915,201H62.273Z" transform="translate(-51.689 -176.897)" fill="#b3b3b3"/>
  <path id="Path_139" data-name="Path 139" d="M116.336,206.386h6.8l3.4-5.886h-6.8Z" transform="translate(-102.641 -176.897)" fill="#f6f6f6"/>
  <path id="Path_140" data-name="Path 140" d="M123.132,206.886h-6.8l-.433-.75,3.4-5.886.433-.25h6.8l.433.75-3.4,5.886Zm-5.93-1h5.641L125.665,201h-5.642Z" transform="translate(-102.641 -176.897)" fill="#b3b3b3"/>
  <path id="Path_141" data-name="Path 141" d="M145.186,156.386h6.8l3.4-5.886h-6.8Z" transform="translate(-128.094 -132.783)" fill="#f6f6f6"/>
  <path id="Path_142" data-name="Path 142" d="M151.983,156.886h-6.8l-.433-.75,3.4-5.886.433-.25h6.8l.433.75-3.4,5.886Zm-5.931-1h5.642l2.82-4.886h-5.642Z" transform="translate(-128.094 -132.783)" fill="#b3b3b3"/>
  <path id="Path_143" data-name="Path 143" d="M174.056,106.386h6.8l3.4-5.886h-6.8Z" transform="translate(-153.566 -88.669)" fill="#f6f6f6"/>
  <path id="Path_144" data-name="Path 144" d="M180.852,106.886h-6.8l-.433-.75,3.4-5.886.433-.25h6.8l.433.75-3.4,5.886Zm-5.93-1h5.641L183.385,101h-5.641Z" transform="translate(-153.566 -88.669)" fill="#b3b3b3"/>
  <path id="Path_145" data-name="Path 145" d="M202.936,56.386h6.8l3.4-5.886h-6.8Z" transform="translate(-179.046 -44.555)" fill="#f6f6f6"/>
  <path id="Path_146" data-name="Path 146" d="M209.732,56.886h-6.8l-.433-.75,3.4-5.886.433-.25h6.8l.433.75-3.4,5.886Zm-5.93-1h5.641L212.265,51h-5.641Z" transform="translate(-179.046 -44.555)" fill="#b3b3b3"/>
  <path id="Path_147" data-name="Path 147" d="M231.806,6.386h6.8L242,.5h-6.8Z" transform="translate(-204.517 -0.441)" fill="#f6f6f6"/>
  <g id="Group_36" data-name="Group 36">
    <g id="Group_35" data-name="Group 35" clip-path="url(#clip-path)">
      <path id="Path_148" data-name="Path 148" d="M238.6,6.886h-6.8l-.433-.75L234.77.25,235.2,0H242l.433.75-3.4,5.886Zm-5.93-1h5.641L241.135,1h-5.642Z" transform="translate(-204.517 -0.441)" fill="#b3b3b3"/>
    </g>
  </g>
  <path id="Path_149" data-name="Path 149" d="M289.536,6.386h6.8L299.731.5h-6.8Z" transform="translate(-255.451 -0.441)" fill="#fcfcfc"/>
  <g id="Group_38" data-name="Group 38">
    <g id="Group_37" data-name="Group 37" clip-path="url(#clip-path)">
      <path id="Path_150" data-name="Path 150" d="M296.333,6.886h-6.8l-.433-.75L292.5.25l.433-.25h6.8l.433.75-3.4,5.886Zm-5.931-1h5.642L298.865,1h-5.642Z" transform="translate(-255.451 -0.441)" fill="#b3b3b3"/>
    </g>
  </g>
  <path id="Path_151" data-name="Path 151" d="M33.125,150.5h6.8l-3.4,5.886h-6.8Z" transform="translate(-26.227 -132.783)" fill="#f6f6f6"/>
  <path id="Path_152" data-name="Path 152" d="M33.125,150h6.8l.433.75-3.4,5.886-.433.25h-6.8l-.433-.75,3.4-5.886Zm5.931,1H33.413l-2.821,4.886h5.643Z" transform="translate(-26.227 -132.783)" fill="#b3b3b3"/>
  <path id="Path_153" data-name="Path 153" d="M350.673,12.272l3.4-5.886L350.673.5l-3.4,5.886Z" transform="translate(-306.394 -0.441)" fill="#b0b0b0"/>
  <g id="Group_40" data-name="Group 40">
    <g id="Group_39" data-name="Group 39" clip-path="url(#clip-path)">
      <path id="Path_154" data-name="Path 154" d="M351.106,12.522h-.866l-3.4-5.886v-.5L350.24.25h.866l3.4,5.886v.5Zm-3.253-6.136,2.82,4.886,2.821-4.886L350.673,1.5Z" transform="translate(-306.394 -0.441)" fill="#b3b3b3"/>
    </g>
  </g>
  <path id="Path_155" data-name="Path 155" d="M379.534,62.272l3.4-5.886-3.4-5.886-3.4,5.886Z" transform="translate(-331.857 -44.555)" fill="#b0b0b0"/>
  <path id="Path_156" data-name="Path 156" d="M379.967,62.522H379.1l-3.4-5.886v-.5l3.4-5.886h.866l3.4,5.886v.5Zm-3.254-6.136,2.821,4.886,2.821-4.886L379.534,51.5Z" transform="translate(-331.857 -44.555)" fill="#b3b3b3"/>
  <path id="Path_157" data-name="Path 157" d="M408.4,112.272l3.4-5.886-3.4-5.886-3.4,5.886Z" transform="translate(-357.328 -88.669)" fill="#b0b0b0"/>
  <path id="Path_158" data-name="Path 158" d="M408.837,112.522h-.866l-3.4-5.886v-.5l3.4-5.886h.866l3.4,5.886v.5Zm-3.254-6.136,2.821,4.886,2.821-4.886L408.4,101.5Z" transform="translate(-357.328 -88.669)" fill="#b3b3b3"/>
  <path id="Path_159" data-name="Path 159" d="M437.275,62.272l3.4-5.886-3.4-5.886-3.4,5.886Z" transform="translate(-382.799 -44.555)" fill="#b0b0b0"/>
  <path id="Path_160" data-name="Path 160" d="M436.841,62.522l-3.4-5.886v-.5l3.4-5.886h.866l3.4,5.886v.5l-3.4,5.886Zm-2.388-6.136,2.821,4.886,2.82-4.886-2.82-4.886Z" transform="translate(-382.799 -44.555)" fill="#b3b3b3"/>
  <path id="Path_161" data-name="Path 161" d="M462.746,6.386l3.4,5.886,3.4-5.886L466.143.5Z" transform="translate(-408.271 -0.441)" fill="#b0b0b0"/>
  <g id="Group_42" data-name="Group 42">
    <g id="Group_41" data-name="Group 41" clip-path="url(#clip-path)">
      <path id="Path_162" data-name="Path 162" d="M466.576,12.522h-.866l-3.4-5.886v-.5L465.71.25h.866l3.4,5.886v.5Zm-3.253-6.136,2.82,4.886,2.821-4.886L466.143,1.5Z" transform="translate(-408.271 -0.441)" fill="#b3b3b3"/>
    </g>
  </g>
  <path id="Path_163" data-name="Path 163" d="M379.534,162.272l3.4-5.886-3.4-5.886-3.4,5.886Z" transform="translate(-331.857 -132.783)" fill="#b0b0b0"/>
  <path id="Path_164" data-name="Path 164" d="M379.967,162.522H379.1l-3.4-5.886v-.5l3.4-5.886h.866l3.4,5.886v.5Zm-3.254-6.136,2.821,4.886,2.821-4.886-2.821-4.886Z" transform="translate(-331.857 -132.783)" fill="#b3b3b3"/>
  <path id="Path_165" data-name="Path 165" d="M437.275,162.272l3.4-5.886-3.4-5.886-3.4,5.886Z" transform="translate(-382.799 -132.783)" fill="#b0b0b0"/>
  <path id="Path_166" data-name="Path 166" d="M436.841,162.522l-3.4-5.886v-.5l3.4-5.886h.866l3.4,5.886v.5l-3.4,5.886Zm-2.388-6.136,2.821,4.886,2.82-4.886-2.82-4.886Z" transform="translate(-382.799 -132.783)" fill="#b3b3b3"/>
  <path id="Path_167" data-name="Path 167" d="M462.746,206.387l3.4,5.886,3.4-5.886-3.4-5.886Z" transform="translate(-408.271 -176.897)" fill="#b0b0b0"/>
  <g id="Group_44" data-name="Group 44">
    <g id="Group_43" data-name="Group 43" clip-path="url(#clip-path)">
      <path id="Path_168" data-name="Path 168" d="M466.576,212.522h-.866l-3.4-5.886v-.5l3.4-5.886h.866l3.4,5.886v.5Zm-3.253-6.136,2.82,4.886,2.821-4.886-2.821-4.886Z" transform="translate(-408.271 -176.897)" fill="#b3b3b3"/>
    </g>
  </g>
  <path id="Path_169" data-name="Path 169" d="M347.276,206.387l3.4,5.886,3.4-5.886-3.4-5.886Z" transform="translate(-306.394 -176.897)" fill="#b0b0b0"/>
  <g id="Group_46" data-name="Group 46">
    <g id="Group_45" data-name="Group 45" clip-path="url(#clip-path)">
      <path id="Path_170" data-name="Path 170" d="M351.106,212.522h-.866l-3.4-5.886v-.5l3.4-5.886h.866l3.4,5.886v.5Zm-3.253-6.136,2.82,4.886,2.821-4.886-2.821-4.886Z" transform="translate(-306.394 -176.897)" fill="#b3b3b3"/>
    </g>
  </g>
  <path id="Path_171" data-name="Path 171" d="M264.064,62.272l3.4-5.886-3.4-5.886-3.4,5.886Z" transform="translate(-229.98 -44.555)" fill="#696969"/>
  <path id="Path_172" data-name="Path 172" d="M264.064,63.272l-3.976-6.886,3.976-6.886,3.976,6.886Zm-2.821-6.886,2.821,4.886,2.821-4.886L264.064,51.5Z" transform="translate(-229.98 -44.555)" fill="#b3b3b3"/>
  <path id="Path_173" data-name="Path 173" d="M299.731,56.386l-3.4-5.886h-6.8l3.4,5.886Z" transform="translate(-255.451 -44.555)" fill="#696969"/>
  <path id="Path_174" data-name="Path 174" d="M300.6,56.886h-7.951L288.67,50h7.952Zm-7.373-1h5.642L296.044,51H290.4Z" transform="translate(-255.451 -44.555)" fill="#b3b3b3"/>
  <path id="Path_175" data-name="Path 175" d="M328.6,106.386l-3.4-5.886h-6.8l3.4,5.886Z" transform="translate(-280.923 -88.669)" fill="#696969"/>
  <path id="Path_176" data-name="Path 176" d="M329.467,106.886h-7.951L317.54,100h7.951Zm-7.373-1h5.641L324.913,101h-5.641Z" transform="translate(-280.923 -88.669)" fill="#b3b3b3"/>
  <path id="Path_177" data-name="Path 177" d="M213.121,206.386l-3.4-5.886h-6.8l3.4,5.886Z" transform="translate(-179.037 -176.897)" fill="#696969"/>
  <path id="Path_178" data-name="Path 178" d="M213.987,206.886h-7.951L202.06,200h7.952Zm-7.373-1h5.641L209.434,201h-5.642Z" transform="translate(-179.037 -176.897)" fill="#b3b3b3"/>
  <path id="Path_179" data-name="Path 179" d="M405.006,250.5l3.4,5.886h6.8l-3.4-5.886Z" transform="translate(-357.328 -221.01)" fill="#696969"/>
  <g id="Group_48" data-name="Group 48">
    <g id="Group_47" data-name="Group 47" clip-path="url(#clip-path)">
      <path id="Path_180" data-name="Path 180" d="M416.066,256.886h-7.951L404.14,250h7.952Zm-7.373-1h5.642L411.514,251h-5.642Z" transform="translate(-357.328 -221.011)" fill="#b3b3b3"/>
    </g>
  </g>
  <path id="Path_181" data-name="Path 181" d="M174.066,206.387l3.4,5.886,3.4-5.886-3.4-5.886Z" transform="translate(-153.575 -176.897)" fill="#696969"/>
  <g id="Group_50" data-name="Group 50">
    <g id="Group_49" data-name="Group 49" clip-path="url(#clip-path)">
      <path id="Path_182" data-name="Path 182" d="M177.465,213.272l-3.976-6.886,3.976-6.886,3.976,6.886Zm-2.821-6.886,2.821,4.886,2.821-4.886-2.821-4.886Z" transform="translate(-153.575 -176.897)" fill="#b3b3b3"/>
    </g>
  </g>
  <path id="Path_183" data-name="Path 183" d="M289.536,250.5l3.4,5.886h6.8l-3.4-5.886Z" transform="translate(-255.452 -221.01)" fill="#9a9a9a"/>
  <g id="Group_52" data-name="Group 52">
    <g id="Group_51" data-name="Group 51" clip-path="url(#clip-path)">
      <path id="Path_184" data-name="Path 184" d="M300.6,256.886h-7.951L288.67,250h7.952Zm-7.373-1h5.642L296.044,251H290.4Z" transform="translate(-255.451 -221.011)" fill="#b3b3b3"/>
    </g>
  </g>
  <path id="Path_185" data-name="Path 185" d="M405.006,6.386h6.8L415.2.5h-6.8Z" transform="translate(-357.328 -0.441)" fill="#fcfcfc"/>
  <g id="Group_54" data-name="Group 54">
    <g id="Group_53" data-name="Group 53" clip-path="url(#clip-path)">
      <path id="Path_186" data-name="Path 186" d="M411.8,6.886h-6.8l-.433-.75,3.4-5.886L408.4,0h6.8l.433.75-3.4,5.886Zm-5.931-1h5.642L414.335,1h-5.642Z" transform="translate(-357.328 -0.441)" fill="#b3b3b3"/>
    </g>
  </g>
  <path id="Path_187" data-name="Path 187" d="M408.4,200.5l-3.4,5.886h6.8Z" transform="translate(-357.328 -176.897)" fill="#696969"/>
  <path id="Path_188" data-name="Path 188" d="M408.4,199.5l4.265,7.386H404.14Zm2.533,6.386L408.4,201.5l-2.533,4.386Z" transform="translate(-357.328 -176.897)" fill="#b3b3b3"/>
  <path id="Path_189" data-name="Path 189" d="M235.2,100.5l-3.4,5.886h6.8Z" transform="translate(-204.517 -88.669)" fill="#696969"/>
  <path id="Path_190" data-name="Path 190" d="M235.2,99.5l4.265,7.386H230.94Zm2.533,6.386L235.2,101.5l-2.532,4.386Z" transform="translate(-204.517 -88.669)" fill="#b3b3b3"/>
  <path id="Path_191" data-name="Path 191" d="M264.063,206.386l3.4-5.886h-6.8Z" transform="translate(-229.98 -176.897)" fill="#696969"/>
  <path id="Path_192" data-name="Path 192" d="M264.063,207.386,259.8,200h8.528ZM261.532,201l2.532,4.386L266.6,201Z" transform="translate(-229.98 -176.897)" fill="#b3b3b3"/>
  <path id="Path_193" data-name="Path 193" d="M408.4,56.386l3.4-5.886h-6.8Z" transform="translate(-357.328 -44.555)" fill="#fcfcfc"/>
  <path id="Path_194" data-name="Path 194" d="M408.837,56.636h-.866l-3.4-5.886.433-.75h6.8l.433.75ZM405.872,51l2.533,4.386L410.937,51Z" transform="translate(-357.328 -44.555)" fill="#b3b3b3"/>
  <path id="Path_195" data-name="Path 195" d="M202.936,156.386h6.8l3.4-5.886h-6.8Z" transform="translate(-179.046 -132.783)" fill="#a6a6a6"/>
  <path id="Path_196" data-name="Path 196" d="M210.021,156.886H202.07L206.046,150H214Zm-6.219-1h5.641L212.265,151h-5.641Z" transform="translate(-179.046 -132.783)" fill="#b3b3b3"/>
  <path id="Path_197" data-name="Path 197" d="M260.666,156.386h6.8l3.4-5.886h-6.8Z" transform="translate(-229.98 -132.783)" fill="#a6a6a6"/>
  <path id="Path_198" data-name="Path 198" d="M267.752,156.886H259.8L263.776,150h7.952Zm-6.22-1h5.643L270,151h-5.643Z" transform="translate(-229.98 -132.783)" fill="#b3b3b3"/>
  <path id="Path_199" data-name="Path 199" d="M.866,250.5l3.4,5.886h6.8l-3.4-5.886Z" transform="translate(-0.764 -221.01)" fill="#d6d6d6"/>
  <g id="Group_56" data-name="Group 56">
    <g id="Group_55" data-name="Group 55" clip-path="url(#clip-path)">
      <path id="Path_200" data-name="Path 200" d="M11.927,256.886H3.975L0,250H7.951Zm-7.375-1h5.642L7.373,251H1.732Z" transform="translate(-0.764 -221.011)" fill="#b3b3b3"/>
    </g>
  </g>
  <path id="Path_201" data-name="Path 201" d="M58.585,250.5l3.4,5.886h6.8l-3.4-5.886Z" transform="translate(-51.689 -221.01)" fill="#d6d6d6"/>
  <g id="Group_58" data-name="Group 58">
    <g id="Group_57" data-name="Group 57" clip-path="url(#clip-path)">
      <path id="Path_202" data-name="Path 202" d="M69.647,256.886H61.7L57.72,250h7.951Zm-7.373-1h5.641L65.093,251H59.452Z" transform="translate(-51.689 -221.011)" fill="#b3b3b3"/>
    </g>
  </g>
  <path id="Path_203" data-name="Path 203" d="M116.336,250.5l3.4,5.886h6.8l-3.4-5.886Z" transform="translate(-102.641 -221.01)" fill="#d6d6d6"/>
  <g id="Group_60" data-name="Group 60">
    <g id="Group_59" data-name="Group 59" clip-path="url(#clip-path)">
      <path id="Path_204" data-name="Path 204" d="M127.4,256.886h-7.952L115.47,250h7.951Zm-7.375-1h5.642L122.843,251H117.2Z" transform="translate(-102.641 -221.011)" fill="#b3b3b3"/>
    </g>
  </g>
  <path id="Path_205" data-name="Path 205" d="M90.865,150.5l-3.4,5.886h6.8Z" transform="translate(-77.169 -132.783)" fill="#d6d6d6"/>
  <path id="Path_206" data-name="Path 206" d="M90.865,149.5l4.263,7.386H86.6Zm2.531,6.386L90.864,151.5l-2.532,4.386Z" transform="translate(-77.169 -132.783)" fill="#b3b3b3"/>
  <path id="Path_207" data-name="Path 207" d="M318.406,156.386h6.8l3.4-5.886h-6.8Z" transform="translate(-280.923 -132.783)" fill="#fcfcfc"/>
  <path id="Path_208" data-name="Path 208" d="M325.2,156.886h-6.8l-.433-.75,3.4-5.886.433-.25h6.8l.433.75-3.4,5.886Zm-5.93-1h5.641L327.735,151h-5.641Z" transform="translate(-280.923 -132.783)" fill="#b3b3b3"/>
  <path id="Path_209" data-name="Path 209" d="M289.536,206.386h6.8l3.4-5.886h-6.8Z" transform="translate(-255.451 -176.897)" fill="#fcfcfc"/>
  <path id="Path_210" data-name="Path 210" d="M296.333,206.886h-6.8l-.433-.75,3.4-5.886.433-.25h6.8l.433.75-3.4,5.886Zm-5.931-1h5.642l2.82-4.886h-5.642Z" transform="translate(-255.451 -176.897)" fill="#b3b3b3"/>
  <text id="Jax-2" data-name="Jax" transform="translate(71.87 4.717)" fill="#6e6a75" font-size="20" font-family="ObjectSans-Medium, Object Sans" font-weight="500"><tspan x="0" y="21">Jax</tspan></text>
</svg>
