<svg xmlns="http://www.w3.org/2000/svg" width="94.709" height="50.884" viewBox="0 0 94.709 50.884">
  <g id="Gym" transform="translate(0.5 0.535)">
    <g id="Group_30" data-name="Group 30" transform="translate(55.912 18.34)">
      <path id="Path_128" data-name="Path 128" d="M309.141,103.327a3.527,3.527,0,0,0-3.848-3.419c-2.746,0-4,1.887-4,4.577v2.223c0,2.634,1.177,4.689,4.091,4.689,2.391,0,3.867-1.364,3.867-3.942V107.1H305.5v-1.252h5.193v1.42a4.962,4.962,0,0,1-5.324,5.324c-3.736,0-5.567-2.653-5.567-5.922v-2.13c0-3.419,1.924-5.866,5.474-5.866,3.269,0,5.231,2.036,5.287,4.67h-1.42Z" transform="translate(-299.8 -98.675)" fill="#4d4d4d"/>
      <path id="Path_129" data-name="Path 129" d="M370.41,132.489l1.252-3.325L368,119.375h1.438l2.989,8.332,2.877-8.332h1.438l-3.643,9.789-1.289,3.325Z" transform="translate(-355.26 -115.508)" fill="#4d4d4d"/>
      <path id="Path_130" data-name="Path 130" d="M425.437,118.3h1.382v1.663a3.237,3.237,0,0,1,3.232-1.887,3.3,3.3,0,0,1,3.12,1.905,3.9,3.9,0,0,1,3.549-1.905c2.148,0,3.512,1.532,3.512,3.848v6.183h-1.457v-5.978c0-1.663-.822-2.8-2.429-2.8a2.671,2.671,0,0,0-2.8,3.008v5.772h-1.457v-5.978c0-1.663-.822-2.8-2.429-2.8a2.671,2.671,0,0,0-2.8,3.008v5.772H425.4V118.3Z" transform="translate(-401.937 -114.451)" fill="#4d4d4d"/>
    </g>
    <path id="Path_125" data-name="Path 125" d="M44.475,36.344V14.487a3.029,3.029,0,0,0-1.532-2.634L24.02.906a3.056,3.056,0,0,0-3.045,0L2.032,11.835A3.029,3.029,0,0,0,.5,14.469V36.344a3.029,3.029,0,0,0,1.532,2.634L20.975,49.907a3.056,3.056,0,0,0,3.045,0L42.943,39a3.037,3.037,0,0,0,1.532-2.653" transform="translate(-0.5 -0.5)" fill="#beb9c2" stroke="#beb9c2" stroke-width="1"/>
    <path id="Path_127" data-name="Path 127" d="M62.3,60.709V60.69c0-.019-.019-.056-.019-.075a.112.112,0,0,1-.019-.075.018.018,0,0,0-.019-.019c-.019-.019-.019-.056-.037-.056v-.019l-.056-.056-.019-.019c-.019-.019-.056-.037-.075-.056l-5.119-2.952V51.443a.112.112,0,0,0-.019-.075V51.35c0-.019-.019-.056-.019-.075v-.019c-.019-.019-.019-.056-.037-.056a.018.018,0,0,0-.019-.019c-.019-.019-.037-.056-.056-.056l-.056-.056a.018.018,0,0,1-.019-.019l-.019-.019-5.361-3.1a.515.515,0,0,0-.467,0l-5.119,2.952-5.119-2.952a.515.515,0,0,0-.467,0l-5.343,3.1a86.24,86.24,0,0,1-.037.037l-.056.056-.056.056-.019.019c-.019.019-.019.037-.037.056v.019a.112.112,0,0,0-.019.075v.019c0,.019-.019.056-.019.075v5.922l-5.137,2.97c-.019.019-.056.037-.075.056l-.019.019-.056.056v.019c-.019.019-.019.037-.037.056a.018.018,0,0,1-.019.019,6412.522,6412.522,0,0,0-.037.149v6.2a.469.469,0,0,0,.224.411l5.119,2.952V76.2a.469.469,0,0,0,.224.411l5.361,3.1c.019.019.019.019.037.019a.018.018,0,0,1,.019.019c.019,0,.019.019.037.019s.019,0,.019.019c.019,0,.019,0,.037.019h.075a.822.822,0,0,0,.187-.037.069.069,0,0,1,.056-.019l5.119-2.952,5.119,2.952a.069.069,0,0,0,.056.019.553.553,0,0,0,.187.037h.075c.019,0,.019,0,.037-.019.019,0,.019,0,.019-.019.019,0,.019-.019.037-.019s.019,0,.019-.019c.019,0,.019-.019.037-.019l5.361-3.1a.448.448,0,0,0,.224-.411V70.274L62,67.322a.448.448,0,0,0,.224-.411V60.728ZM46.013,75.766h0c-.019-.019-.037-.019-.056-.037-.019,0-.019-.019-.037-.019s-.019-.019-.056-.019c-.019,0-.037-.019-.056-.019H45.7a.069.069,0,0,0-.056.019c-.019,0-.019,0-.056.019-.019,0-.019.019-.037.019-.019.019-.019.019-.056.019a.018.018,0,0,0-.019.019l-4.6,2.69v-5.1l4.876-2.821,4.876,2.821v5.1Zm-10.7-17.747h0c.019-.019.037-.037.056-.037.019-.019.019-.019.037-.019s.019-.019.037-.037.019-.019.019-.037c.019-.019.019-.019.019-.037.019-.019.019-.019.019-.037s.019-.019.019-.056c0-.019.019-.019.019-.056,0-.019,0-.019.019-.056V52.209l4.409,2.559V60.41l-4.876,2.821-4.409-2.559ZM45.77,51.985l4.876,2.821v5.1l-4.652-2.69a.018.018,0,0,1-.019-.019c-.019-.019-.019-.019-.056-.019-.019,0-.019-.019-.037-.019s-.019-.019-.056-.019c-.019,0-.019-.019-.056-.019h-.112a.069.069,0,0,0-.056.019c-.019,0-.019,0-.056.019-.019,0-.019.019-.037.019a.069.069,0,0,1-.056.019.018.018,0,0,0-.019.019l-4.558,2.69v-5.1Zm0,17.467-4.894-2.821V60.989l4.876-2.821,4.876,2.821v5.642Zm-10.237-5.38,4.409-2.559v5.455c0,.019,0,.019.019.056,0,.019.019.019.019.056,0,.019.019.019.019.056.019.019.019.019.019.037.019.019.019.019.019.037s.019.019.019.037l.037.037c.019.019.019.019.037.019.019.019.019.019.037.019l.019.019,4.652,2.69L40.427,72.59l-4.876-2.821Zm15.6,8.481-4.409-2.559,4.652-2.69.019-.019c.019-.019.019-.019.037-.019.019-.019.019-.019.037-.019l.037-.037c.019-.019.019-.019.019-.037.019-.019.019-.019.019-.037.019-.019.019-.019.019-.037.019-.019.019-.019.019-.056,0-.019.019-.019.019-.056,0-.019,0-.019.019-.056V61.475l4.409,2.559v5.679Zm5.361-9.285-4.876-2.821V54.806l4.409-2.559V57.7c0,.019,0,.019.019.056,0,.019.019.019.019.056,0,.019.019.019.019.056.019.019.019.019.019.037.019.019.019.019.019.037.019.019.019.019.019.037l.037.037c.019.019.019.019.037.019.019.019.019.019.037.019l.019.019,4.652,2.69ZM51.132,48.884l4.409,2.559L51.132,54l-4.409-2.559Zm-10.723,0,4.409,2.559-4.409,2.541L36,51.443ZM30.171,61.531,34.58,64.09v5.1l-4.409-2.559Zm9.77,16.925L35.533,75.9V70.8l4.409,2.559Zm16.066-2.541L51.6,78.475v-5.1l4.409-2.559Zm5.361-9.285L56.96,69.19v-5.1l4.409-2.559Z" transform="translate(-23.839 -39.025)" fill="#4d4d4d"/>
  </g>
</svg>
