<svg xmlns="http://www.w3.org/2000/svg" width="149.667" height="45.839" viewBox="0 0 149.667 45.839">
  <g id="Petting_Zoo" data-name="Petting Zoo" transform="translate(-11.333 -1.747)">
    <g id="PettingZoo_Logo" data-name="PettingZoo Logo" transform="translate(357.333 68.747)">
      <path id="Path_134" data-name="Path 134" d="M36.211,18.03a11.255,11.255,0,0,0,.959,2.822,23.6,23.6,0,0,1,1.7,4.473,6.6,6.6,0,0,1-.318,3.733,1.2,1.2,0,0,1-.534.74v.852a2.648,2.648,0,0,1-.213.852c-.254.467-.5.9-1.012.8-.347-.095-.688-.535-.959-.8-.25-.244-.369-.386-.692-.744a5.316,5.316,0,0,1-1.066,3.034,13.552,13.552,0,0,1-3.941,3.728,9.437,9.437,0,0,0-.8.692,6.1,6.1,0,0,0-2.071,3.753c-.136.517-.475.682-1.071.4a5.813,5.813,0,0,1-1.278-1.491,6.958,6.958,0,0,1-.8-1.6c-.063.271-.211.7-.32,1.012a9.772,9.772,0,0,1-.746,1.6,26.973,26.973,0,0,1-1.385,2.343A11.532,11.532,0,0,1,20.4,45.667a.49.49,0,0,1-.692.053,15.589,15.589,0,0,1-3.781-6.443,7.26,7.26,0,0,1-1.97,3.035,1.1,1.1,0,0,1-.959.107c-.183-.184-.217-.265-.273-.929a5.048,5.048,0,0,0-.313-.988,8.206,8.206,0,0,0-1.065-1.651,5.985,5.985,0,0,0-1.118-1.012c-.165-.133-.629-.514-.8-.639A12.673,12.673,0,0,1,6.5,34.538a8.535,8.535,0,0,1-1.438-2.556,4.518,4.518,0,0,1-.213-1.172c-.444.519-1.464,1.657-1.97,1.491-.237-.012-.852-.97-.852-2.5-.723-.362-1.137-2.616-.905-4.154a13.532,13.532,0,0,1,1.118-3.408,21.432,21.432,0,0,0,1.6-4.207,3.921,3.921,0,0,1-1.544,0c-1-.2-2.285-.676-2.29-1.811,0-.259.175-.514.746-.854a12.243,12.243,0,0,0,2.875-2.873A9.954,9.954,0,0,0,4.58,11a4.118,4.118,0,0,1-.746-.426A6.884,6.884,0,0,1,1.761,7.906a7.079,7.079,0,0,1-.216-2.444C1.529,2.334,2.026.9,4.154.137c.248-.018.55-.089.8-.107A6.657,6.657,0,0,1,9.586,1.255c.5.348,1.11.754,1.651,1.172.232-.173.514-.326.746-.479A6.975,6.975,0,0,1,14.165.829a7.9,7.9,0,0,1,3.461.373A9.975,9.975,0,0,1,19.49,2.214c.207.149.362.3.586.479a7.09,7.09,0,0,1,1.331-.959A7.691,7.691,0,0,1,25.934.883a5.256,5.256,0,0,1,1.757.8c.334.21.839.522,1.118.746.587-.473,1.769-1.21,2.4-1.6A4.607,4.607,0,0,1,33.123.084a9.315,9.315,0,0,1,1.97,0A5.271,5.271,0,0,1,36.477.35a2.866,2.866,0,0,1,1.012.8,3.652,3.652,0,0,1,.586.959A7.56,7.56,0,0,1,38.5,5.2a10.968,10.968,0,0,1-.16,2.5A6.172,6.172,0,0,1,35.519,11a10.443,10.443,0,0,0,2.769,3.515c1.347,1.257,1.68,1,1.757,1.757a2.825,2.825,0,0,1-.373.852c-.68.858-1.867,1.1-3.461.905M7.083.989a15.785,15.785,0,0,0-2.9.083A2.629,2.629,0,0,0,2.61,2.96a4.635,4.635,0,0,0-.16,1.012c-.066,1.3-.269,2.911.107,3.728A7.8,7.8,0,0,0,3.568,9.19,4.511,4.511,0,0,0,4.9,10.255c.45-.6.363-1.734,1.172-1.811a.46.46,0,0,1,.266.533,13.226,13.226,0,0,1-.8,1.97,16.957,16.957,0,0,1-1.97,2.876c-.37.446-.722.77-1.172,1.225a6.212,6.212,0,0,1-.746.639c-.262.224-.666.425-.851.6a1.732,1.732,0,0,0,.851.781,4.821,4.821,0,0,0,2.716,0,.411.411,0,0,1,.426.4q0,.015,0,.031a4.842,4.842,0,0,1-.213,1.118A8.855,8.855,0,0,1,4.1,20.053a32.5,32.5,0,0,0-2.183,5.538A5.929,5.929,0,0,0,2.29,28.84a11.948,11.948,0,0,1,.8-1.6c.692-1.145,1.7-2.138,2.343-3.355a6.086,6.086,0,0,0,.586-1.651.436.436,0,0,1,.533-.213.557.557,0,0,1,.213.426,4.8,4.8,0,0,1-.852,2.183c-.99,1.76-2.83,3.548-3.089,5.325A2.538,2.538,0,0,0,3.089,31.4a8.672,8.672,0,0,0,1.278-1.278c.351-.46.48-1.287,1.012-1.278.236.022.326.25.32.692-.01.319,0,.426,0,.746a4.6,4.6,0,0,0,.213,1.6,9.414,9.414,0,0,0,3.515,4.26c.321.231.621.505.959.746A7.261,7.261,0,0,1,9.8,32.3c.175-.608.218-1.22.852-1.225.225.059.417.364.16.746a5.226,5.226,0,0,0-.16,3.2,18.714,18.714,0,0,0,2.077,4.367,8.9,8.9,0,0,1,.622,1.374c.141.4.209.619.284.809a5.33,5.33,0,0,0,.639-.8,7.567,7.567,0,0,0,1.172-3.142,5.938,5.938,0,0,0-.053-1.065c.143-.275.219-.33.479-.32.247.088.313.195.426.746.133.709.224,1.427.426,2.13a13.862,13.862,0,0,0,1.651,3.568A13.962,13.962,0,0,0,19.6,44.5v-.533c0-.353.014-1.189.053-1.6a3.657,3.657,0,0,1,.053-.479c.1-.162.135-.182.426-.16.188.124.194.226.266.692.045.4-.014,1.485,0,2.13.1-.2.778-1.035,1.331-1.97A17.093,17.093,0,0,0,23.8,36.721c.081-.344.163-.425.533-.426.173.089.31.154.32.533a4.877,4.877,0,0,0,.053,1.385,6.014,6.014,0,0,0,1.757,3.355A8.129,8.129,0,0,1,27.691,38.8a10.629,10.629,0,0,0,.692-1.225,12.816,12.816,0,0,0,.678-1.491,7.749,7.749,0,0,0,.44-3.355,11.439,11.439,0,0,0-.373-1.172.418.418,0,0,1,.746-.32,7.107,7.107,0,0,1-.213,5.645A28.451,28.451,0,0,0,32,35.07a4.7,4.7,0,0,0,.586-.639,7.594,7.594,0,0,0,1.7-3.248,10.464,10.464,0,0,0,.053-1.97A.382.382,0,0,1,35.04,29a10.474,10.474,0,0,0,.905,1.491,4.938,4.938,0,0,0,1.012.905,3.173,3.173,0,0,0-.32-3.035c-.856-1.448-1.9-2.549-2.716-4.047a3.433,3.433,0,0,1-.639-1.917.363.363,0,0,1,.692-.16c.16.333.182.64.32,1.012a5.275,5.275,0,0,0,.852,1.544,18.549,18.549,0,0,1,2.663,4.047,10.009,10.009,0,0,0,.426-1.864,8.64,8.64,0,0,0-.639-3.142c-.361-.952-.719-1.753-1.118-2.663a9.317,9.317,0,0,1-1.225-3.781c.012-.237.316-.423.692-.266,1.1.346,3.092.135,3.248-.905a7.134,7.134,0,0,1-1.172-.852,14.836,14.836,0,0,1-3.408-4.313,7.448,7.448,0,0,1-.905-2.237c.033-.4.418-.5.692-.213.324.534.46,1.114.746,1.7.188-.135.625-.467,1.065-.852A6.739,6.739,0,0,0,37.489,7.7,6.882,6.882,0,0,0,37.7,5.516,11.925,11.925,0,0,0,37.6,3.971c-.222-1.5-.55-2.548-1.811-2.929A13.577,13.577,0,0,0,34.4.936a4.827,4.827,0,0,0-2.183.266c-.294.161-.477.311-.746.479-1.013.632-1.938,1.283-2.876,1.97a6.994,6.994,0,0,1-2.077,1.331.392.392,0,0,1-.32-.639c.321-.2.587-.351.905-.586a12.3,12.3,0,0,0,.959-.8c-.365-.2-.727-.484-1.065-.692a5.393,5.393,0,0,0-2.929-.533,7.865,7.865,0,0,0-2.663.959,4.067,4.067,0,0,0-.852.639c-.161.156-.208.451-.479.479-.32.071-.358-.167-.639-.479a5.811,5.811,0,0,0-2.876-1.438,5.559,5.559,0,0,0-2.237-.107,4.833,4.833,0,0,0-1.438.586c-.259.168-.6.416-.905.639.394.27.85.593,1.788,1.255.442.32-.008.772-.4.715a5.446,5.446,0,0,1-.746-.426c-.541-.355-.9-.679-1.438-1.065-1.494-1.076-2.914-2.278-4.1-2.5M5.8,3.013a.918.918,0,0,1,.533,0c.922.4,2.574,2.048,2.663,3.3-.072.429-.485.55-.746.213A11.466,11.466,0,0,0,7.189,4.77c-.267-.335-1.271-.752-1.544-1.118-.093-.348,0-.527.16-.639m27.8.053a1.038,1.038,0,0,1,.639-.053.527.527,0,0,1,.107.746A5.2,5.2,0,0,0,32.59,5.036c-1.006,1.247-.388,1.721-1.278,1.7-.254-.09-.313-.535-.213-.8a3.585,3.585,0,0,1,.426-.905,7.1,7.1,0,0,1,.533-.746A7.623,7.623,0,0,1,33.6,3.066M13.473,12.7c1.2.034,1.819.164,2.4.959a2.177,2.177,0,0,1,.373.639c.1.373.011.685.16.905.389.575,1,.947,1.118,1.811-.071.264-.386.366-.692.16a8.327,8.327,0,0,0-.959-1.225c-.927.971-3.236.43-3.834-.479a1.917,1.917,0,0,1-.426-.905c-.322.035-1.257.634-1.7.639-.267-.011-.389-.432-.16-.692.583-.363,1.121-.694,1.757-1.012.206-.137.362-.2.586-.32.25-.119.248-.119.533-.266a3.813,3.813,0,0,1,.852-.213m14.964,1.864c-.06.94-1.652,2.1-2.929,1.917a3.024,3.024,0,0,1-.852-.213,1.422,1.422,0,0,1-.479-.373c-.124.164-.645.8-1.012,1.278a.517.517,0,0,1-.479.107c-.13-.128-.189-.164-.16-.533a2.511,2.511,0,0,1,.373-.586c.2-.3.51-.665.746-.959l.053-.746a2.94,2.94,0,0,1,1.118-1.438,3.46,3.46,0,0,1,2.558-.112c.227.106.532.208.743.325.2.109.446.294.586.373.192.108.354.179.533.266.448.218,1.054.445,1.172.905-.107.5-.358.482-.692.32-.345-.19-.837-.313-1.278-.533m-15.6-.746a.943.943,0,0,0-.213.479,1.62,1.62,0,0,0,1.385,1.278,1.488,1.488,0,0,0,1.438-.533c.107-.165-.212-.69-.32-.852a.9.9,0,0,1-.533,1.118,1.231,1.231,0,0,1-.869-.1,1.047,1.047,0,0,1-.409-.648c-.181-.592.152-.876.373-.905-.218.026-.63-.084-.852.16m13.473-.107a.751.751,0,0,1,.373,1.012,1.011,1.011,0,0,1-.479.586,1.41,1.41,0,0,1-.8-.053.871.871,0,0,1-.533-.959,1.142,1.142,0,0,0-.213.959,1.741,1.741,0,0,0,2.716-.852.636.636,0,0,0-.16-.586.95.95,0,0,0-.905-.107m-8.84,5.432a.4.4,0,0,1,.373,0,.882.882,0,0,1,.213.692,8.04,8.04,0,0,1-.373,1.438A25.556,25.556,0,0,0,16.4,24.207c-.137.548.212.82.213,1.385-.158.181-.225.289-.533.213a1.476,1.476,0,0,1-.533-.8,2.4,2.4,0,0,1,.107-1.438,24.912,24.912,0,0,1,1.172-2.663c.272-.547.329-1.26.639-1.757m4.739.053a.314.314,0,0,1,.373,0c.239.4.247.919.479,1.385a18.588,18.588,0,0,1,1.385,3.142c.223.769.063,1.831-.479,2.024a.425.425,0,0,1-.373.053.539.539,0,0,1-.107-.639,2.376,2.376,0,0,0-.16-1.864c-.4-.964-.728-1.526-1.065-2.556-.193-.591-.4-.988-.053-1.544m-4.047,4.846a3.156,3.156,0,0,1,.746.053c.312.067.761.32,1.118.426.375-.1.757-.329,1.118-.426a4.058,4.058,0,0,1,1.118,0c.2.107.293.124.32.479-.053.2-.165.246-.479.266-.391.012-1.426.2-1.6.586V27.4a10.072,10.072,0,0,0,1.864,1.012c.617.244,1.811.05,1.757.852-.161.357-.635.309-1.118.213a15.389,15.389,0,0,1-1.6-.479,3.932,3.932,0,0,1-1.385-.905c-.593.762-2.367,1.365-3.834,1.438-.236-.139-.265-.216-.266-.586.206-.334,1.18-.322,1.811-.533a7.52,7.52,0,0,0,1.118-.479,1.829,1.829,0,0,0,.692-.533v-1.97a3.129,3.129,0,0,0-1.9-.6.494.494,0,0,1-.179-.46.965.965,0,0,1,.32-.266.836.836,0,0,1,.373-.053" transform="translate(-346 -67)" fill="#6b6b6b" fill-rule="evenodd"/>
    </g>
    <text id="PettingZoo" transform="translate(58 13.5)" fill="#6e6a75" font-size="20" font-family="Ubuntu"><tspan x="0" y="19">PettingZoo</tspan></text>
  </g>
</svg>
