<svg id="PyTorch" xmlns="http://www.w3.org/2000/svg" width="126.113" height="42.178" viewBox="0 0 126.113 42.178">
  <g id="Group_31" data-name="Group 31">
    <g id="Group_32" data-name="Group 32">
      <path id="Path_131" data-name="Path 131" d="M29.929,12.394l-3.062,3.062a13.095,13.095,0,1,1-18.519,0l8.166-8.166,1.021-1.166V0L5.141,12.394a17.338,17.338,0,0,0-.125,24.519c.041.042.083.083.125.125a17.338,17.338,0,0,0,24.519.123l.123-.123a17.212,17.212,0,0,0,.146-24.644" transform="translate(0)" fill="#9f9f9f"/>
      <path id="Path_132" data-name="Path 132" d="M20.248,5.718a2.333,2.333,0,1,1-2.334,2.334,2.334,2.334,0,0,1,2.334-2.334" transform="translate(3.557 1.135)" fill="#9f9f9f"/>
    </g>
    <path id="Path_133" data-name="Path 133" d="M41.313,21.774h-2.4v6.165H37.126v-17.5H41.5c4.641,0,6.828,2.253,6.828,5.513,0,3.845-2.718,5.768-7.027,5.833Zm.12-9.678H38.858v8.022l2.519-.066c3.315-.066,5.106-1.393,5.106-4.111,0-2.452-1.724-3.845-5.039-3.845Zm15,15.777-1.061,2.784c-1.194,3.116-2.4,4.044-4.177,4.044a6.1,6.1,0,0,1-2.519-.6l.53-1.59a4.042,4.042,0,0,0,1.99.53c.995,0,1.724-.53,2.651-3l.863-2.253L49.734,15.131h1.858l4.044,10.607,3.979-10.607H61.4ZM67.366,12.161V28.006H65.576V12.161H59.411V10.438H73.53V12.1H67.365Zm11.2,16.175c-3.58,0-6.233-2.651-6.233-6.762s2.718-6.828,6.352-6.828c3.58,0,6.165,2.651,6.165,6.762s-2.718,6.828-6.3,6.828Zm.066-11.986c-2.718,0-4.507,2.187-4.507,5.171,0,3.116,1.858,5.238,4.574,5.238s4.507-2.187,4.507-5.171c0-3.116-1.858-5.238-4.574-5.238M89.309,28.005H87.586V15.145l1.724-.332v2.718c.863-1.658,2.121-2.718,3.779-2.718a4.7,4.7,0,0,1,2.253.6l-.463,1.656a3.856,3.856,0,0,0-1.99-.53c-1.326,0-2.585.995-3.646,3.315v8.154Zm12.861.331c-3.845,0-6.3-2.784-6.3-6.762,0-4.044,2.651-6.828,6.3-6.828a7.249,7.249,0,0,1,4.044,1.127l-.464,1.591a6.34,6.34,0,0,0-3.58-1.061c-2.784,0-4.507,2.056-4.507,5.106,0,3.116,1.858,5.171,4.574,5.171a6.676,6.676,0,0,0,3.58-1.061l.332,1.591a7.344,7.344,0,0,1-3.979,1.127Zm14.783-.331V19.718c0-2.253-.928-3.236-2.718-3.236a5.619,5.619,0,0,0-3.979,1.858v9.744h-1.724V9.123l1.724-.332v8.088a6.682,6.682,0,0,1,4.442-2.056c2.519,0,4.044,1.591,4.044,4.375v8.817Z" transform="translate(7.372 1.746)" fill="#4e4e4e"/>
  </g>
</svg>
