<?xml version="1.0" encoding="utf-8"?>
<!-- Generator: Adobe Illustrator 26.0.3, SVG Export Plug-In . SVG Version: 6.00 Build 0)  -->
<svg version="1.1" id="Stable_Baseline" xmlns="http://www.w3.org/2000/svg" xmlns:xlink="http://www.w3.org/1999/xlink" x="0px"
	 y="0px" viewBox="0 0 142 50" style="enable-background:new 0 0 142 50;" xml:space="preserve">
<style type="text/css">
	.st0{fill:#919191;}
	.st1{fill:#FFFFFF;}
	.st2{fill:#4E4E4E;}
	.st3{fill:#6E6A75;}
	.st4{font-family:'ObjectSans-Medium';}
	.st5{font-size:20px;}
</style>
<g id="Stable_Baseline_Logo">
	<path id="Path_2" class="st0" d="M4.3,12.4c-0.1,6.5,5.1,11.8,11.6,11.9c0.1,0,0.1,0,0.2,0c6.6,0,12-5.3,12-11.9
		c0-3.7-1.2-7.1-3.8-9.3c-2.1-1.7-4.2-2.6-8.2-2.6C9.6,0.6,4.3,5.8,4.3,12.2C4.3,12.3,4.3,12.4,4.3,12.4z"/>
	<path id="Path_3" class="st1" d="M45.5,48.8c-1.8-2.5-3.9-4.9-6.2-7C30.7,34.1,18,44.4,18,44.4c1,1.4,1.8,2.9,2.3,4.4L45.5,48.8
		L45.5,48.8z"/>
	<path id="Path_4" class="st2" d="M45.4,39c-1.7-4.2-4.3-10.2-4.3-10.2c-1.9-4-4.9-7.4-8.6-9.8c-1.6-1-2.9-2.4-3.9-4.1
		c0.1-0.7,0.2-1.4,0.2-2c0-4.3-1.5-7.9-4.2-10.1C22.5,1.1,20.1,0,15.6,0C8.5-0.1,2.8,5.6,2.7,12.6c0,0.1,0,0.2,0,0.3
		C2.6,20,8.3,25.8,15.3,25.9c0.1,0,0.2,0,0.3,0c2.3,0,4.5-0.6,6.5-1.7l1.9,4.1l1.1-0.6l-2.1-4.1c2.6-1.7,4.6-4.3,5.4-7.3
		c0.8,1.5,2.1,2.8,3.6,3.7c3.5,2.3,6.3,5.4,8.2,9.2c0,0.1,2.7,6.1,4.4,10.3l0,0.1l0,0.1c1.8,2.5,1.7,6.7,1.5,8.8
		c-1.9-2.7-4.1-5.2-6.5-7.5c-3.9-3.4-9.1-4-15.1-1.7c-2.9,1.1-5.5,2.6-8,4.4l0.8,0.9c0.1-0.1,13-10.3,21.5-2.8
		c2.3,2.2,4.5,4.6,6.3,7.2l0.9,0.1c-0.1,0.4-0.1,0.6-0.1,0.6l1.2,0.2C46.9,49.7,48.2,42.9,45.4,39z M23.8,3.7c0.4,0.3,0.7,0.6,1.1,1
		c-0.2,1.7-1.6,9-13.9,11.8c-0.1-0.6-0.4-1.9-0.6-3.5c7-4.3,8.1-9.7,8.3-11.6C20.6,1.7,22.3,2.5,23.8,3.7L23.8,3.7z M15.6,1.2
		c0.8,0,1.7,0,2.5,0.1c-0.1,1.7-1.1,6.9-7.7,11C9.9,8.8,9.9,4,11.9,1.8C13.1,1.4,14.3,1.2,15.6,1.2z M25.3,19.8
		c-4.5-2.3-12.2-0.4-12.6-0.3l0.1,0.6c0.1,0,7.7-1.9,12.1,0.2c-2.3,2.8-5.7,4.4-9.3,4.4C9.2,24.7,4,19.6,3.9,13.2c0-0.1,0-0.2,0-0.3
		C3.9,8.4,6.4,4.3,10.4,2.4c-1.5,2.8-1.4,7.2-1,10.5c-0.2,0.1-0.4,0.2-0.5,0.3l0.3,0.5l0.3-0.2c0.3,2,0.6,3.5,0.6,3.7l0.5,0.3
		c7.7-1.7,11.4-5.1,13.1-7.7c0.8-1.2,1.4-2.6,1.7-4.1c1.3,2.2,2,4.7,1.9,7.2C27.5,15.4,26.7,17.8,25.3,19.8L25.3,19.8z"/>
	<path id="Path_5" class="st1" d="M36.2,34.9c0,4-4.4,7.2-9.8,7.2c-2.7,0-5.7-0.3-7.5-1.5s-2.3-3.7-2.3-5.7c0-4,5.9-7.7,11.3-7.7
		c2.3,0,4.6,0.4,5.9,1.8C35.4,30.6,36.3,32.7,36.2,34.9z"/>
	<path id="Path_6" class="st2" d="M26.4,42.6c-3.7,0-6.2-0.5-7.7-1.6c-1.6-1.2-2.5-3.3-2.5-6c0-4.5,6.4-8.2,11.8-8.2
		c2.9,0,5,0.6,6.2,1.9c1.6,1.7,2.5,3.9,2.4,6.2C36.6,39.1,32.1,42.6,26.4,42.6z M28,27.6c-5.4,0-10.9,3.7-10.9,7.3
		c0,1.4,0.3,4,2.1,5.3c1.4,1,3.7,1.4,7.2,1.4c5.2,0,9.4-3,9.4-6.8c0.1-2.1-0.7-4.1-2.2-5.6C32.5,28.2,30.6,27.6,28,27.6L28,27.6z"/>
	<path id="Path_7" class="st2" d="M33.1,32c-0.7,0-1.3,0.5-1.3,1.2c-2.1,0.4-4,0.9-5.1,1.2c-0.2-0.7-0.9-1.2-1.7-1
		c-0.7,0.2-1.2,0.9-1,1.7c0.2,0.7,0.9,1.2,1.7,1c0.5-0.1,0.9-0.5,1-1.1c1.7-0.5,3.5-0.9,5.2-1.3c0.2,0.4,0.7,0.7,1.2,0.7
		c0.7,0.1,1.3-0.4,1.4-1.1c0.1-0.7-0.4-1.3-1.1-1.4C33.3,32,33.2,32,33.1,32L33.1,32z"/>
	<path id="Path_8" class="st1" d="M17.2,44.4c-2.9-4.4-2.4-12-2.4-12v-5.5c-0.1-5.2-2.6-8.8-4.4-8.9h-0.3c0-0.1,0.2-5.1-1.7-5
		c-0.6,0.1-1.1,0.6-1.4,1.2l0,0c0,0-0.7-1.3-1.9-1.2S4,15.3,4,15.3c0.1,0.6,0.3,1.3,0.5,1.9l0,0c0,0-1.6,0.3,0,3.5
		c0.5-0.5,1-1,1.6-1.4C6.3,19.1,6.4,19,6.5,19c-0.7,0.5-1.3,1-1.7,1.7c-1.9,2.4-2.6,11.7-2.6,11.7s-1.2,7.5-1.5,9.7
		c-0.1,2.5-0.2,6.7-0.2,6.7h18.9C19.4,48.8,20.1,48.9,17.2,44.4z M9.9,18c-0.2,0-0.3,0-0.5,0C9.6,18,9.7,17.9,9.9,18z M7.6,18.3
		c0,0,0.1,0,0.3-0.1c-0.2,0.1-0.4,0.1-0.6,0.2L7.6,18.3z"/>
	<path id="Path_9" class="st2" d="M17.5,44.2c-2.8-4.3-2.4-11.7-2.4-11.8v-5.5c-0.1-5.1-2.6-9.2-4.8-9.3l0,0c0-1.1-0.1-3.5-1-4.5
		c-0.2-0.3-0.6-0.4-0.9-0.4h0c-0.5,0.1-1,0.4-1.3,0.9c0,0,0,0,0,0c-0.4-0.6-1.2-1-1.9-0.9c-1.5,0.2-1.3,2.5-1.3,2.6
		C3.8,15.9,4,16.5,4.2,17c-0.2,0.1-0.4,0.3-0.5,0.5c-0.3,0.7-0.2,1.8,0.6,3.2c-1.7,2.9-2.4,11-2.4,11.6c-0.1,0.4-1.2,7.6-1.5,9.7
		v0.1C0.1,44.6,0,48.7,0,48.8l0.9,0c0,0,0.1-4.2,0.3-6.7c0.4-2.2,1.5-9.6,1.5-9.7v0c0-0.1,0.7-9.2,2.5-11.5c1.1-1.7,3.1-2.7,5.2-2.5
		c1.4,0.1,3.9,3.3,4,8.5v5.5c0,0.3-0.4,7.8,2.5,12.3c2.1,3.3,2.3,4.1,2.3,4.1c0,0,0.2,0.4,0.2,0.4h0c0.2,0,0.3-0.1,0.4-0.2
		C20,48.7,20.2,48.3,17.5,44.2z M8.4,13.3c0.2,0,0.4,0.1,0.5,0.2c0.7,0.7,0.9,2.9,0.9,4c-0.7,0-1.4,0.1-2.1,0.4
		c-0.2-0.6-0.3-1.1-0.4-1.7v0c-0.3-0.7-0.2-1.5,0.2-2.2C7.7,13.6,8,13.4,8.4,13.3L8.4,13.3z M4.8,19.9l-0.2,0.2
		c-0.6-1.4-0.5-2.1-0.4-2.3c0-0.1,0.1-0.2,0.2-0.2c0.3,0.6,0.7,1.2,1.2,1.6C5.3,19.4,5.1,19.7,4.8,19.9L4.8,19.9z M4.3,15.3
		c0,0-0.1-1.9,0.8-2c0.7,0,1.3,0.3,1.6,0.9c-0.2,0.7-0.2,1.4,0,2c0.1,0.6,0.2,1.3,0.4,1.9c-0.4,0.2-0.8,0.4-1.2,0.7
		C5,17.9,4.4,16.6,4.3,15.3z"/>
	<path id="Path_10" class="st1" d="M24.7,27.1c1.2-0.3,2.4-0.5,3.7-0.5c2.8,0,4.9,0.6,6.1,1.9c1.6,1.6,2.5,3.8,2.4,6.1
		c0,1.3-0.4,2.5-1.2,3.5c1,0.4,1.9,1,2.7,1.8c2.3,2.1,4.3,4.5,6.1,7c0.2-2,0.3-6-1.4-8.3l0-0.1l0-0.1c-1.6-3.9-4.1-9.6-4.1-9.7
		c-1.7-3.6-4.4-6.6-7.7-8.7c-1.4-0.8-2.6-2-3.3-3.5c-0.8,2.8-2.6,5.3-5.1,6.9L24.7,27.1z"/>
</g>
<text transform="matrix(1 0 0 1 58 23.697)" class="st3 st4 st5">Stable </text>
<text transform="matrix(1 0 0 1 58 41.697)" class="st3 st4 st5">baseline</text>
</svg>
