<svg id="TensorFlow" xmlns="http://www.w3.org/2000/svg" width="193.623" height="35.796" viewBox="0 0 193.623 35.796">
  <g id="Group_22" data-name="Group 22">
    <path id="Path_123" data-name="Path 123" d="M30.669,35.8l6.106-3.546V22.179l4.612,2.669-.026-6.888-4.586-2.621v-4l9.2,5.316-.021-7.922L30.669,0Z" transform="translate(-13.989)" fill="#9f9f9f"/>
    <path id="Path_124" data-name="Path 124" d="M.021,8.733,0,16.654l9.2-5.316V32.25L15.306,35.8V0Z" transform="translate(0 0)" fill="#9f9f9f"/>
  </g>
  <g id="Group_23" data-name="Group 23" transform="translate(42.294 7.97)">
    <path id="Path_114" data-name="Path 114" d="M95.162,17.817H88.322V36.678H84.541V17.817H77.762V14.744h17.4Z" transform="translate(-77.762 -14.695)" fill="#6a6a6a"/>
    <path id="Path_115" data-name="Path 115" d="M111.553,41.451a7.574,7.574,0,0,1-5.642-2.192,7.95,7.95,0,0,1-2.161-5.838V32.97a9.784,9.784,0,0,1,.941-4.361,7.165,7.165,0,0,1,2.644-2.99,6.993,6.993,0,0,1,3.8-1.069,6.4,6.4,0,0,1,5.144,2.124,8.983,8.983,0,0,1,1.815,6.011V34.16h-10.65a4.89,4.89,0,0,0,1.348,3.194,4.045,4.045,0,0,0,2.975,1.175,4.958,4.958,0,0,0,4.1-2.034l1.973,1.883a6.581,6.581,0,0,1-2.614,2.267,8.18,8.18,0,0,1-3.668.806m-.437-13.965a3.081,3.081,0,0,0-2.433,1.055,5.459,5.459,0,0,0-1.182,2.938h6.974v-.271a4.449,4.449,0,0,0-.979-2.779,3.061,3.061,0,0,0-2.38-.941" transform="translate(-89.616 -19.168)" fill="#6a6a6a"/>
    <path id="Path_116" data-name="Path 116" d="M138.692,24.849l.1,1.883a5.861,5.861,0,0,1,4.745-2.184q5.092,0,5.182,5.83V41.149h-3.661V30.589a3.359,3.359,0,0,0-.67-2.3,2.819,2.819,0,0,0-2.192-.746,3.528,3.528,0,0,0-3.3,2v11.6h-3.66v-16.3Z" transform="translate(-103.98 -19.167)" fill="#6a6a6a"/>
    <path id="Path_117" data-name="Path 117" d="M173.583,36.721a1.66,1.66,0,0,0-.806-1.491,8.57,8.57,0,0,0-2.674-.9,13.749,13.749,0,0,1-3.118-.994,4.161,4.161,0,0,1-2.742-3.841,4.338,4.338,0,0,1,1.777-3.525,7.025,7.025,0,0,1,4.519-1.416A7.31,7.31,0,0,1,175.262,26a4.591,4.591,0,0,1,1.8,3.751H173.4a2.256,2.256,0,0,0-.783-1.755,3,3,0,0,0-2.079-.7,3.243,3.243,0,0,0-1.966.557,1.756,1.756,0,0,0-.761,1.491,1.482,1.482,0,0,0,.708,1.31,9.724,9.724,0,0,0,2.862.942,13.536,13.536,0,0,1,3.382,1.13,4.794,4.794,0,0,1,1.823,1.575,4.015,4.015,0,0,1,.6,2.229,4.247,4.247,0,0,1-1.823,3.562,7.772,7.772,0,0,1-4.776,1.364,8.421,8.421,0,0,1-3.57-.723,5.872,5.872,0,0,1-2.44-1.988,4.706,4.706,0,0,1-.873-2.726h3.555a2.581,2.581,0,0,0,.979,2,3.8,3.8,0,0,0,2.4.7,3.7,3.7,0,0,0,2.2-.55,1.7,1.7,0,0,0,.753-1.439" transform="translate(-116.96 -19.168)" fill="#6a6a6a"/>
    <path id="Path_118" data-name="Path 118" d="M191.953,32.848a9.612,9.612,0,0,1,.949-4.316,6.936,6.936,0,0,1,2.667-2.953,7.516,7.516,0,0,1,3.947-1.032,7.12,7.12,0,0,1,5.355,2.124,8.353,8.353,0,0,1,2.222,5.634l.015.859a9.7,9.7,0,0,1-.926,4.309,6.849,6.849,0,0,1-2.651,2.938,7.569,7.569,0,0,1-3.984,1.039,7.069,7.069,0,0,1-5.521-2.3,8.8,8.8,0,0,1-2.072-6.124Zm3.661.317a6.568,6.568,0,0,0,1.039,3.939,3.379,3.379,0,0,0,2.892,1.424,3.342,3.342,0,0,0,2.885-1.446,7.255,7.255,0,0,0,1.032-4.234,6.487,6.487,0,0,0-1.062-3.917,3.58,3.58,0,0,0-5.732-.022,7.114,7.114,0,0,0-1.055,4.255" transform="translate(-129.846 -19.167)" fill="#6a6a6a"/>
    <path id="Path_119" data-name="Path 119" d="M232.9,28.194a9.1,9.1,0,0,0-1.491-.121A3.358,3.358,0,0,0,228.021,30V41.149H224.36v-16.3h3.5l.091,1.823a4.123,4.123,0,0,1,3.676-2.124,3.433,3.433,0,0,1,1.3.211Z" transform="translate(-144.628 -19.167)" fill="#6a6a6a"/>
    <path id="Path_120" data-name="Path 120" d="M257.607,27.383H248.78v9.3h-3.811V14.744H258.9v3.073H248.78V24.34h8.828Z" transform="translate(-154.027 -14.695)" fill="#6a6a6a"/>
    <path id="Path_121" data-name="Path 121" d="M286.435,32.848a9.611,9.611,0,0,1,.949-4.316,6.936,6.936,0,0,1,2.667-2.953A7.517,7.517,0,0,1,294,24.548a7.122,7.122,0,0,1,5.356,2.124,8.356,8.356,0,0,1,2.221,5.634l.015.859a9.7,9.7,0,0,1-.926,4.309,6.849,6.849,0,0,1-2.651,2.938,7.568,7.568,0,0,1-3.984,1.039,7.07,7.07,0,0,1-5.521-2.3,8.8,8.8,0,0,1-2.071-6.124Zm3.66.317a6.568,6.568,0,0,0,1.039,3.939,3.379,3.379,0,0,0,2.892,1.424,3.342,3.342,0,0,0,2.885-1.446,7.254,7.254,0,0,0,1.032-4.234,6.484,6.484,0,0,0-1.062-3.917,3.58,3.58,0,0,0-5.732-.022,7.114,7.114,0,0,0-1.055,4.255" transform="translate(-172.941 -19.167)" fill="#6a6a6a"/>
    <path id="Path_122" data-name="Path 122" d="M331.508,36.356,334.1,25.1h3.57l-4.444,16.3h-3.013l-3.5-11.193L323.283,41.4H320.27l-4.459-16.3h3.57l2.636,11.132L325.362,25.1h2.757Z" transform="translate(-186.34 -19.42)" fill="#6a6a6a"/>
    <rect id="Rectangle_29" data-name="Rectangle 29" width="3.66" height="21.982" transform="translate(107.151)" fill="#6a6a6a"/>
  </g>
</svg>
