<svg xmlns="http://www.w3.org/2000/svg" viewBox="0 0 1000 1000.5"><defs><style>.cls-1{fill:#ffe199;}.cls-2{fill:#ffd266;}.cls-3{fill:#ffc333;}.cls-4{fill:#f4f3ee;}.cls-5{fill:#dddccd;}.cls-6{fill:#d2d0bc;}.cls-7{fill:#506093;}.cls-8{fill:#a19e8a;}.cls-9{fill:#f0c5a2;}.cls-10{fill:#6b80c4;}.cls-11{fill:#b27773;}.cls-12{fill:#364062;}.cls-13{fill:#8999d0;}</style></defs><g id="Layer_2" data-name="Layer 2"><g id="Layer_1-2" data-name="Layer 1"><circle class="cls-1" cx="500" cy="500" r="500"/><circle class="cls-2" cx="500" cy="607.02" r="392.98"/><circle class="cls-3" cx="500" cy="686.77" r="313.23"/><path class="cls-4" d="M388.27,709.08H617.32S603.8,470.93,498.27,470.93,388.27,709.08,388.27,709.08Z"/><polygon class="cls-5" points="457.26 485.43 463.85 671.54 445.19 671.54 457.26 485.43"/><ellipse class="cls-6" cx="502.67" cy="710.24" rx="123.54" ry="9.16"/><ellipse class="cls-7" cx="502.85" cy="708.38" rx="114.54" ry="8.5"/><path class="cls-8" d="M326.11,242.15s-34.76-7-70.21,34.83C255.9,277,316,291.33,326.11,242.15Z"/><path class="cls-9" d="M309.49,224.05l22.05,190.58s-73.18,37.55-74.33-41.24C256.58,330,266.3,282.94,274,243.67c4.6-23.36,7.68-48.08,9.69-56.3a8.4,8.4,0,0,1,5.81-6.06Z"/><path class="cls-10" d="M326.43,241.71s-9.14,36.07-70.2,34.84c0,0-41.8,183.59,130.72,338.5l72.13-138.11S310.58,541.69,326.43,241.71Z"/><path class="cls-6" d="M681.12,248.69s34.76-7,70.2,34.83C751.32,283.52,691.23,297.86,681.12,248.69Z"/><path class="cls-9" d="M684.42,156.75l-3.3,241.87s74.79,34.22,72.4-44.54c-2.1-69.19-28.46-162.88-34.84-184.64a8.4,8.4,0,0,0-6.07-5.8Z"/><path class="cls-9" d="M673.07,170.91s-1.71,1,.24,12.44c1.61,9.48,9.81,57.75,27.12,50s10.1-38.2-13.57-38.82C686.86,194.49,677.36,168.91,673.07,170.91Z"/><path class="cls-11" d="M700.43,233.73a.42.42,0,0,1-.39-.25.43.43,0,0,1,.21-.56c7.13-3.2,10.62-10.86,8.88-19.51a22.86,22.86,0,0,0-22.28-18.5.41.41,0,0,1-.38-.27s-1.18-3.17-2.85-7.09a.43.43,0,0,1,.22-.56.43.43,0,0,1,.55.23c1.4,3.29,2.45,6,2.77,6.86A23.66,23.66,0,0,1,710,213.24c1.82,9-1.85,17.08-9.35,20.45A.38.38,0,0,1,700.43,233.73Z"/><path class="cls-9" d="M684.24,169.78s-4.53-33.26.27-34.17,10.4,38.69,10.4,38.69Z"/><path class="cls-11" d="M700.44,189.72c-2,0-3.76-2.23-3.84-2.33-6.93-14.35-8.47-20.11-4.68-28.29a.42.42,0,1,1,.76.36c-3.67,7.93-2.23,13.26,4.64,27.49h0s1.54,2,3.16,1.93a2.4,2.4,0,0,0,1.87-1.21,8.29,8.29,0,0,0,1-2,.42.42,0,0,1,.79.27,8.57,8.57,0,0,1-1.13,2.18,3.17,3.17,0,0,1-2.54,1.57ZM697.32,187h0Z"/><path class="cls-11" d="M706,187.26a4,4,0,0,1-2.5-1.1,9,9,0,0,1-.94-1c-6.29-13-7.61-17.9-4.27-25.12a.43.43,0,0,1,.56-.21.42.42,0,0,1,.21.56c-3.22,7-2,11.44,4.21,24.32h0s.33.38.79.79a3.06,3.06,0,0,0,2.16.89,2.23,2.23,0,0,0,1.46-1,7,7,0,0,0,1-2.11.42.42,0,0,1,.52-.29.42.42,0,0,1,.29.51,7.88,7.88,0,0,1-1.14,2.37,3,3,0,0,1-2,1.4Z"/><path class="cls-11" d="M713.19,187.81c-1.81,0-3.36-2-3.43-2.08-.39-.79-.72-1.49-1-2.17,0,0,0-.05,0-.08-5.23-11.08-6-15.74-3.69-21.64a.42.42,0,1,1,.79.31c-2.24,5.65-1.44,10.17,3.69,21l0,.08c.3.66.62,1.33,1,2h0s1.35,1.69,2.72,1.69h0a2.06,2.06,0,0,0,1.62-1.08c2-2.89,1-4.93,1-5-.44-.88-.9-1.76-1.36-2.63a58.75,58.75,0,0,1-3-6.19.43.43,0,0,1,.25-.55.42.42,0,0,1,.54.25,55.13,55.13,0,0,0,2.91,6.1c.46.88.92,1.76,1.36,2.64,0,.1,1.26,2.55-1.05,5.87a2.91,2.91,0,0,1-2.3,1.44Z"/><path class="cls-10" d="M681.12,248.69s9.14,36.06,70.2,34.83c0,0,44,200.9-135.92,329.72L548.47,483.91S697,548.66,681.12,248.69Z"/><path class="cls-9" d="M299.71,170.61a10.61,10.61,0,0,0-2.77-3.18c-2.94-1.92-7.21-.23-9,2.79s-1.61,6.83-.75,10.23c-2.22-.55-4.37,1.6-4.73,3.86s.55,4.51,1.44,6.62c-1.87-1.36-4.72.35-5.25,2.6s.54,4.55,1.77,6.51c-2.18-.53-4.28,1.5-4.75,3.69s.19,4.43.72,6.61a55,55,0,0,1-1.45,30.71c-1.38,4-3.21,8.41-1.44,12.24,1.31,2.83,4.26,4.48,7,5.93,3.88,2,8.64,4.1,12.44,1.9a12.18,12.18,0,0,0,3.88-4.3,122.12,122.12,0,0,0,10.1-20.64c3.52-9,6.4-18.39,6.89-28.05C314.61,192.76,307.71,182.79,299.71,170.61Z"/><path class="cls-11" d="M294.24,191.88c-.8,0-1.89-.5-3-2.54l-.09-.15c-1.49-2.36-4.08-6.71-4.77-9.36a.42.42,0,0,1,.82-.21c.49,1.89,2.14,5.12,4.66,9.12l.11.19c.54,1,1.61,2.49,2.72,2,1.65-.7,2.95-5.51,1.37-10.72-.44-1.43-.79-2.9-1.14-4.32q-.31-1.32-.66-2.64a.42.42,0,0,1,.3-.52.43.43,0,0,1,.51.3c.24.89.45,1.78.67,2.67.34,1.4.7,2.86,1.12,4.27,1.66,5.46.37,10.79-1.84,11.73A1.85,1.85,0,0,1,294.24,191.88Z"/><path class="cls-11" d="M292.49,203.77a1.7,1.7,0,0,1-1.31-.6,57.36,57.36,0,0,1-4-6.44c-1.53-2.66-3.11-5.41-4.22-7a.42.42,0,0,1,.69-.49c1.13,1.58,2.72,4.35,4.26,7a57.9,57.9,0,0,0,3.88,6.3,1.14,1.14,0,0,0,1.51,0c1.82-1.19,3.19-5.4.57-11a.42.42,0,1,1,.76-.35c3,6.4,1.06,10.8-.86,12.06A2.39,2.39,0,0,1,292.49,203.77Z"/><path class="cls-11" d="M286.32,214.76a6.68,6.68,0,0,1-3.78-1.68c-.87-.65-4.82-4.6-6.08-7.74a.42.42,0,1,1,.78-.31c1.18,2.93,5,6.78,5.8,7.38,2,1.51,3.52,1.9,4.27,1.12.9-.95.57-3.24-.34-4.33a.41.41,0,0,1,0-.59.43.43,0,0,1,.6,0c1.15,1.38,1.52,4.16.3,5.45A2.14,2.14,0,0,1,286.32,214.76Z"/><path class="cls-11" d="M291.77,212.53a2.12,2.12,0,0,1-.49-.06c-3.65-.83-10.61-10.92-11.42-12.25a.42.42,0,0,1,.14-.58.43.43,0,0,1,.58.14c1.12,1.85,7.78,11.17,10.88,11.87a.87.87,0,0,0,.71-.07c1.83-1.19-1.47-9-3.68-12.61a.42.42,0,0,1,.14-.58.43.43,0,0,1,.58.14c1.37,2.28,6.3,11.87,3.42,13.76A1.57,1.57,0,0,1,291.77,212.53Z"/><path class="cls-12" d="M297.6,195.7a2.1,2.1,0,0,1-.43,0,2,2,0,0,1-1.52-2.39L328.23,47.58a2,2,0,1,1,3.9.87L299.55,194.14A2,2,0,0,1,297.6,195.7Z"/><path class="cls-9" d="M318.83,199.61a9.14,9.14,0,0,1,1.37,6.33,12.91,12.91,0,0,1-1.85,4.56c-2.57,4.51-7.52,17.66-10.09,22.18-6.1-.35-8.65-14.64-9.42-20.7s2-12.16,6.06-16.7c-1,1.06-5-15.07-4.09-17.74C304.23,167,306.42,181.75,318.83,199.61Z"/><path class="cls-11" d="M303.44,225.78a.43.43,0,0,1-.28-.11c-5.83-5.34-5.89-12.84-5.41-16.84.66-5.41,3-10.55,5.55-12.2-.19-1-.86-4.88-1.75-9.61a.42.42,0,1,1,.83-.15c1,5.54,1.79,9.86,1.8,9.9a.44.44,0,0,1-.22.45c-2.08,1.14-4.66,5.84-5.37,11.71-.46,3.84-.41,11,5.14,16.12a.41.41,0,0,1,0,.59A.43.43,0,0,1,303.44,225.78Z"/><path class="cls-10" d="M541.3,482.17l8.24,28.95L562.42,701.4c10.23.41,19,1.09,25.8,1.75,15.7,1.52,22.34,3,26.46,4.05,4.81,1.22,8.74,2.51,11.5,3.48a288.33,288.33,0,0,0-3.67-72.46C608.46,560,565.07,507.06,541.3,482.17Z"/><path class="cls-10" d="M443.21,701.22l14.61-219v-.13c-71.81.49-79,213-78.69,228.18,3.1-1,7.39-2.24,12.56-3.42a169.08,169.08,0,0,1,19.42-3.15C419.08,702.75,429.92,701.75,443.21,701.22Z"/><polygon class="cls-12" points="536.39 485.65 549.54 514.71 579.24 483.55 536.1 467.45 536.39 485.65"/><polygon class="cls-7" points="558.89 701.25 562.55 701.42 549.67 511.14 541.44 482.18 541.07 480.88 536.24 463.88 536.49 480.04 536.52 482.08 558.89 701.25"/><polygon class="cls-12" points="562.42 473.68 579.24 479.96 579.24 483.55 552.37 484.42 562.42 473.68"/><polygon class="cls-7" points="536.39 482.06 549.54 511.12 579.24 479.96 536.1 463.86 536.39 482.06"/><path class="cls-7" d="M337.07,393.46s20.44,107.8,102.4,115.45v-26S361.81,494.51,337.07,393.46Z"/><polygon class="cls-10" points="457.82 464.45 419.3 472.72 439.47 491.06 457.01 494.51 457.82 464.45"/><path class="cls-9" d="M457.83,482.06c.79,1.22,14.9,22.08,40.47,21.43,24.08-.61,37-19.75,38.09-21.43V390.12H457.83Z"/><path class="cls-11" d="M503.23,424.79s9.18,27.59-45.4,49.69l.16-44.19Z"/><path class="cls-9" d="M438.65,370.49l-3.26,49c-11.39,48.29,23,43.55,46.5,35.46,12.73-4.39,25-13.57,32.34-31.48,0,0,44.64,22.32,44.64-28s-41.13-59.22-62.52-58.92S440,339.27,438.65,370.49Z"/><path class="cls-12" d="M449.18,376.47H437.29a.42.42,0,0,1-.42-.42.42.42,0,0,1,.42-.42h11.89a.42.42,0,0,1,.42.42A.42.42,0,0,1,449.18,376.47Z"/><path class="cls-11" d="M452.46,411.64h0a10.88,10.88,0,0,1-5.06-1.95.37.37,0,0,1-.12-.13,2.43,2.43,0,0,1,0-2,72.05,72.05,0,0,0,3.2-16.27.42.42,0,0,1,.45-.39.43.43,0,0,1,.39.45,73.05,73.05,0,0,1-3.24,16.47,2.09,2.09,0,0,0-.14,1.25,10.14,10.14,0,0,0,4.58,1.75.41.41,0,0,1,.37.46A.41.41,0,0,1,452.46,411.64Z"/><path class="cls-12" d="M484.74,375.07h-.05l-20.49-2.22a.42.42,0,0,1-.37-.46.43.43,0,0,1,.47-.37l20.48,2.21a.43.43,0,0,1,.37.47A.41.41,0,0,1,484.74,375.07Z"/><path class="cls-12" d="M456.12,429.93a15.49,15.49,0,0,1-3.78-.42.42.42,0,0,1,.24-.81c.59.17,14.4,4,22.26-14.09a.42.42,0,0,1,.56-.21.41.41,0,0,1,.21.55C470,427.9,461.13,429.93,456.12,429.93Z"/><circle class="cls-12" cx="471.99" cy="396.7" r="3.24"/><circle class="cls-12" cx="443.23" cy="396.7" r="3.24"/><path class="cls-12" d="M555.8,343.79c11.73,23.33,14.07,70.45,3.07,78.47s-22.48,22.51-22.48,22.51-8.39-40.53-11.74-43.5-8.91,8.33-15.1,8.16-16-30.25-5.74-46.79-43.06-6.54-60.58-12.75-4.67-41.95-4.67-41.95S544.07,320.46,555.8,343.79Z"/><path class="cls-9" d="M509.55,409.43c1.44-7.95,6.92-13.62,12.24-12.66s8.48,8.19,7,16.15-6.92,13.62-12.24,12.66"/><path class="cls-11" d="M515.83,412.92h0a.42.42,0,0,1-.38-.45c.64-8.08,8.33-8,8.4-8a.42.42,0,0,1,.41.43.44.44,0,0,1-.43.41,7.32,7.32,0,0,0-7.54,7.18A.42.42,0,0,1,515.83,412.92Z"/><path class="cls-11" d="M523.8,411.6h0a.42.42,0,0,1-.42-.43c0-3.28-5.42-3.4-5.48-3.4a.41.41,0,0,1-.41-.42.44.44,0,0,1,.42-.42c.26,0,6.31.13,6.31,4.25A.42.42,0,0,1,523.8,411.6Z"/><polygon class="cls-13" points="419.3 472.72 419.3 476.43 439.77 494.51 439.47 491.06 419.3 472.72"/><path class="cls-7" d="M599.05,575.56v96h27.16S625,604.65,599.05,575.56Z"/><path class="cls-7" d="M599.05,575.56s158.78-61.71,152.27-292c0,0,50.55,198.23-135.92,329.72Z"/><polygon class="cls-10" points="692.15 805.55 309.3 805.55 213.59 671.55 787.86 671.55 692.15 805.55"/><path class="cls-12" d="M692.15,806.05H309.3a.52.52,0,0,1-.41-.21l-95.71-134a.49.49,0,0,1,0-.52.52.52,0,0,1,.45-.27H787.86a.49.49,0,0,1,.44.27.49.49,0,0,1,0,.52l-95.72,134A.49.49,0,0,1,692.15,806.05Zm-382.59-1H691.89l95-133H214.56Z"/><rect class="cls-7" x="213.59" y="656.93" width="574.28" height="14.62"/><path class="cls-12" d="M787.86,672.05H213.59a.5.5,0,0,1-.5-.5V656.93a.5.5,0,0,1,.5-.5H787.86a.5.5,0,0,1,.5.5v14.62A.5.5,0,0,1,787.86,672.05Zm-573.77-1H787.36V657.43H214.09Z"/><path class="cls-10" d="M671.63,713.94H329.81V970.28a502.16,502.16,0,0,0,341.82-.52Z"/><polygon class="cls-7" points="329.81 759.51 671.63 805.09 671.63 713.94 329.81 713.94 329.81 759.51"/><path class="cls-12" d="M500,1000.5a499,499,0,0,1-170.36-29.75l-.33-.12V713.44H672.13V970.11l-.32.12A498.84,498.84,0,0,1,500,1000.5ZM330.31,969.93a501.68,501.68,0,0,0,340.82-.52v-255H330.31Z"/></g></g></svg>