<svg xmlns="http://www.w3.org/2000/svg" xmlns:xlink="http://www.w3.org/1999/xlink" viewBox="0 0 1080 1080"><defs><style>.cls-1,.cls-15,.cls-32{fill:none;}.cls-2{fill:#fff9eb;}.cls-3,.cls-31{fill:#6b80c4;}.cls-4{fill:#e59e00;}.cls-5{fill:#c4cce7;}.cls-6{fill:#a6b3dc;}.cls-7{fill:#ffd266;}.cls-24,.cls-8{fill:#a19e8a;}.cls-15,.cls-19,.cls-20,.cls-21,.cls-22,.cls-25,.cls-26,.cls-27,.cls-28,.cls-29,.cls-31,.cls-32,.cls-8{stroke:#364062;}.cls-15,.cls-19,.cls-20,.cls-21,.cls-22,.cls-25,.cls-26,.cls-27,.cls-28,.cls-29,.cls-31,.cls-8{stroke-linecap:round;stroke-linejoin:round;}.cls-9{clip-path:url(#clip-path);}.cls-10{fill:#e1e6f3;}.cls-11,.cls-20,.cls-22{fill:#364062;}.cls-12,.cls-29{fill:#0dffb4;}.cls-13{fill:#fff;}.cls-14,.cls-21{fill:#506093;}.cls-16{fill:#b27773;}.cls-17{fill:#855956;}.cls-18,.cls-25{fill:#ffc333;}.cls-19{fill:#ffb400;}.cls-22{stroke-width:0.5px;}.cls-23{fill:#c7c4ab;}.cls-26,.cls-27{fill:#6effd2;}.cls-28{fill:#9effe1;}.cls-30{clip-path:url(#clip-path-2);}.cls-32{stroke-miterlimit:10;}</style><clipPath id="clip-path"><polygon class="cls-1" points="612.62 409.14 604.63 193.13 842.19 193.13 850.18 409.14 612.62 409.14"/></clipPath><clipPath id="clip-path-2"><polygon class="cls-1" points="694.54 288.48 691.47 205.32 782.93 205.32 786 288.48 694.54 288.48"/></clipPath></defs><g id="Layer_2" data-name="Layer 2"><g id="Layer_1-2" data-name="Layer 1"><circle class="cls-1" cx="540" cy="540" r="540"/><circle class="cls-2" cx="540" cy="540" r="540"/><path class="cls-3" d="M73.86,267.23A537.55,537.55,0,0,0,0,540c0,269,196.74,492.1,454.2,533.21Z"/><path class="cls-4" d="M61.42,638.63s166.5,89.66,402.33,14.91C463.75,653.54,306.43,522.21,61.42,638.63Z"/><path class="cls-5" d="M97.6,626.31l-49,137.76a540.7,540.7,0,0,0,98.73,146.55l102-239.19,25.37,339a536.36,536.36,0,0,0,132.79,53.21l38.27-430.66S287.65,475.31,97.6,626.31Z"/><path class="cls-6" d="M147,910.29,249.24,671.43l2-60.56L138.58,901.19Q142.72,905.8,147,910.29Z"/><path class="cls-6" d="M359.12,1049a538.35,538.35,0,0,0,54.31,16.13L443.3,656.62l-58.8-40.08Z"/><path class="cls-7" d="M1080,540A537.56,537.56,0,0,0,971.53,215.34L614.78,1074.86C877.62,1038.45,1080,812.86,1080,540Z"/><polygon class="cls-8" points="915.93 368.36 1027.7 434.5 1006.72 483.73 974.38 475.61 915.93 368.36"/><g class="cls-9"><path class="cls-10" d="M744.2,213.69c-3.78-4.75-4.87-7.77-1.75-7.77a17.39,17.39,0,0,1,5.57,1.42,171.54,171.54,0,0,1,15.87,7.36l12.41-8.27a.52.52,0,0,1,.29-.09.53.53,0,0,1,.42.2.44.44,0,0,1-.08.62l0,0-12,8c17.53,9.21,44,26.25,55.8,49.8,2.67,5.35,2.2,7.61-.42,7.61-3.36,0-10.26-3.69-18.64-9.34a71.28,71.28,0,0,1,5,23.75c1.43,38.64-29.41,71.83-72.43,76-3,.3-6,.44-9,.44-42.48,0-80.06-29.14-86.12-68.42a70.61,70.61,0,0,1-.79-8.21c-1.42-38.64,29.41-71.83,72.45-76,3-.3,6-.44,9-.44a92.78,92.78,0,0,1,24.52,3.3M723.63,194c-4.17,0-8.37.19-12.6.61C650.75,200.52,607.61,247,609.61,301a100.43,100.43,0,0,0,1.1,11.48c8.47,54.94,61.07,95.74,120.51,95.74q6.27,0,12.61-.62c60.22-5.85,103.37-52.3,101.37-106.34a100.43,100.43,0,0,0-1.1-11.48h0c-8.48-54.94-61.07-95.73-120.52-95.73"/><path class="cls-11" d="M731.22,408.22c-59.44,0-112-40.8-120.51-95.74a100.43,100.43,0,0,1-1.1-11.48c-2-54,41.14-100.48,101.37-106.34,4.23-.42,8.43-.61,12.6-.61,59.45,0,112,40.79,120.52,95.73h.49l.49,0-.49,0h-.49a100.43,100.43,0,0,1,1.1,11.48c2,54-41.15,100.49-101.37,106.34a124.64,124.64,0,0,1-12.61.62m-7.67-215.09c-4.21,0-8.45.19-12.71.61C650.12,199.65,606.6,246.49,608.62,301a99.94,99.94,0,0,0,1.11,11.58c8.55,55.42,61.59,96.56,121.52,96.56q6.33,0,12.72-.62c60.72-5.91,104.24-52.74,102.22-107.26a102.18,102.18,0,0,0-1.11-11.58c-8.55-55.42-61.59-96.55-121.53-96.55"/><path class="cls-12" d="M669.55,267.19a.53.53,0,0,1-.41-.19.44.44,0,0,1,.05-.61l0,0,42.38-28.23a.46.46,0,0,1,.28-.08.57.57,0,0,1,.42.19.44.44,0,0,1-.05.61l0,0-42.38,28.23a.6.6,0,0,1-.29.08m50.16-55.88q-4.43,0-8.9.43c-42.54,4.14-73,36.94-71.59,75.1A69.75,69.75,0,0,0,640,295c6,38.8,43.11,67.6,85.1,67.6q4.42,0,8.91-.43c42.53-4.14,73-36.94,71.58-75.1a68.9,68.9,0,0,0-.78-8.11l.5,0-.5,0a71.56,71.56,0,0,0-4.66-16.62,368.05,368.05,0,0,1-29.65-23c-6.52-5.57-12.63-11.14-17.6-16.09l-60.76,40.47a.53.53,0,0,1-.69-.11.44.44,0,0,1,0-.62l0,0,60.67-40.4c-2.75-2.76-5.13-5.32-7-7.55a91.68,91.68,0,0,0-25.5-3.62"/><path class="cls-11" d="M719.68,210.39c-3,0-6,.14-9,.44-43,4.18-73.87,37.37-72.45,76A70.61,70.61,0,0,0,639,295c6.06,39.28,43.64,68.42,86.12,68.42,3,0,6-.14,9-.44,43-4.18,73.86-37.37,72.43-76a71.28,71.28,0,0,0-5-23.75l-1.45-1a71.56,71.56,0,0,1,4.66,16.62l.5-.05.5,0-.5,0-.5.05a68.9,68.9,0,0,1,.78,8.11c1.41,38.16-29.05,71-71.58,75.1a89.14,89.14,0,0,1-8.91.43c-42,0-79.12-28.8-85.1-67.6a68.9,68.9,0,0,1-.78-8.11c-1.41-38.16,29-71,71.59-75.1a88.8,88.8,0,0,1,8.9-.43,91.68,91.68,0,0,1,25.5,3.62c-.36-.43-.69-.84-1-1.24a92.78,92.78,0,0,0-24.52-3.3"/><path class="cls-13" d="M711.9,238.05a.46.46,0,0,0-.28.08l-42.38,28.23a.42.42,0,0,0-.13.59l0,.05a.53.53,0,0,0,.41.19.6.6,0,0,0,.29-.08l42.38-28.23a.42.42,0,0,0,.13-.59l0,0a.57.57,0,0,0-.42-.19"/><path class="cls-13" d="M752.21,222.48l-60.67,40.4a.44.44,0,0,0-.12.61l0,0a.53.53,0,0,0,.69.11l60.76-40.47-.69-.69m24.38-16.14a.52.52,0,0,0-.29.09l-12.41,8.27,1,.5,12-8a.45.45,0,0,0,.13-.61l0,0a.53.53,0,0,0-.42-.2"/><path class="cls-13" d="M742.45,205.92c-3.12,0-2,3,1.75,7.77l1,1.24c1.87,2.23,4.25,4.79,7,7.55l.69.69c5,5,11.08,10.52,17.6,16.09a368.05,368.05,0,0,0,29.65,23l1.45,1c8.38,5.65,15.28,9.34,18.64,9.34,2.62,0,3.09-2.26.42-7.61-11.78-23.55-38.27-40.59-55.8-49.8l-1-.5q-7.74-4.06-15.85-7.35a17.39,17.39,0,0,0-5.57-1.42"/></g><polygon class="cls-3" points="1062.75 640.12 610.74 640.12 592.09 262.08 860.9 263.42 1062.75 640.12"/><path class="cls-14" d="M604.36,510.89c41.58-18.05,113.57-47.07,187.1-66.17,31.64-.83,62.92,2.28,93.73,11,50.7,14.33,85.95,33.62,102.1,43.58L921.73,377a94.76,94.76,0,0,0-24.81-3c-32.58.14-66.08,4.73-98.92,11.9q-14.68-1.14-29.47-1.47C712.85,383.22,656.29,409,600.22,427Z"/><polygon class="cls-11" points="1062.75 640.12 936.33 788.79 594.78 788.37 610.74 640.12 1062.75 640.12"/><polygon class="cls-14" points="594.78 788.37 610.74 640.12 592.09 262.08 582.8 376.56 594.78 788.37"/><polygon class="cls-15" points="1062.75 640.12 610.74 640.12 592.09 262.08 860.9 263.42 1062.75 640.12"/><polygon class="cls-15" points="1062.75 640.12 936.33 788.79 594.78 788.37 610.74 640.12 1062.75 640.12"/><polygon class="cls-15" points="594.78 788.37 610.74 640.12 592.09 262.08 582.8 376.56 594.78 788.37"/><path class="cls-6" d="M93.78,632.17s111.78-26.91,157.1-2c0,0,133.7-29.71,192,29.67l4.94-36.49S371.87,526.24,97.6,612.47Z"/><path class="cls-7" d="M61.42,638.63s206-104.12,403.67,14.91c0,0-43.32-177-32.49-231.18s51-150.54,14.68-155.89-112.14-9.09-143.42,0-52.39,116-74.6,158.3C216.5,449.09,76.09,611.18,61.42,638.63Z"/><circle class="cls-3" cx="455.46" cy="138.87" r="34.25"/><path class="cls-14" d="M476.45,111.82a34.24,34.24,0,0,0-14.76,60.72,34.24,34.24,0,0,0,14.76-60.72Z"/><path class="cls-14" d="M372.77,148.58s-8.12,26.78,1.5,36.1,11.58-38.5,12.49-38.35S372.77,148.58,372.77,148.58Z"/><path class="cls-14" d="M468.87,200.26c-7.44,29.73-36.13,41-63.68,41-28.54,0-43.31-37.77-31.58-66.08,13.17-31.8,39.53-47,64-40.89S476.32,170.53,468.87,200.26Z"/><path class="cls-16" d="M460.45,200.26c-7.45,29.73-36.13,41-63.68,41-28.54,0-43.31-37.77-31.58-66.08,13.17-31.8,39.53-47,64-40.89S467.89,170.53,460.45,200.26Z"/><path class="cls-16" d="M374.4,222.32,360.77,261,420,263.42l9.64-41.1S389,184.87,374.4,222.32Z"/><path class="cls-17" d="M377.81,215.56a87.19,87.19,0,0,0-5.67,14.88s12.2-12.33,33.09-6.31c19.85,5.71,13.47,25.3,10.88,39.13l3.88.16,9.64-41.1S394.45,189.92,377.81,215.56Z"/><path class="cls-14" d="M442.09,139.35a53.57,53.57,0,0,1,10.22,20.93c7.54,32.43-20.19,59.68-22.68,62,28.91-14.58,41.8-42,34.74-61.39C459.8,148.43,447.85,142,442.09,139.35Z"/><path class="cls-3" d="M372.77,148.58a38.87,38.87,0,0,1,13.06-17.33,45.89,45.89,0,0,1,37.77-7.74C459,132.45,460.78,169,460.78,169c-7.87-6.55-26.31-28-48.71-27.93A108.56,108.56,0,0,0,372.77,148.58Z"/><path class="cls-14" d="M371.61,154.49a17.29,17.29,0,0,1,2.25-8.43c6.59-11.21,19.45-15.84,30.17-15.28,40.81,2.12,53.58,34.45,56.75,38.18-4.87-2.32-9.24-10.25-20.52-16.58-8.66-4.86-28.05-10.21-39.66-10.2C393.65,142.18,387.58,145.3,371.61,154.49Z"/><polyline class="cls-15" points="390.99 165.31 395.57 159.46 402.93 166.26"/><ellipse class="cls-11" cx="391.02" cy="153.96" rx="2.44" ry="1.99" transform="translate(114.32 470.24) rotate(-70.31)"/><ellipse class="cls-11" cx="408.53" cy="154.21" rx="2.44" ry="1.99" transform="translate(125.69 486.89) rotate(-70.31)"/><path class="cls-17" d="M372.14,230.44s-26.73-43.09,18.85-37c22.5,3,38.64,28.88,38.64,28.88S384,213.33,372.14,230.44Z"/><path class="cls-15" d="M389.89,173.22a11.94,11.94,0,0,0,11.38,1.11"/><path class="cls-14" d="M458,173.11s-7.64,34.07-28.34,49.21L425.72,239s45.29-17.27,39.37-55.57S458,173.11,458,173.11Z"/><line class="cls-15" x1="388.24" y1="146.33" x2="396.96" y2="146.33"/><line class="cls-15" x1="404.45" y1="138.87" x2="422.53" y2="139.35"/><path class="cls-18" d="M440.57,390.22l-21.64-79.16L386.8,475.3l-2.3,141.24a394.94,394.94,0,0,1,80.59,37s-43.32-177-32.49-231.18C434.53,412.74,437.38,401.77,440.57,390.22Z"/><path class="cls-18" d="M148.62,527.39s109.28-37.11,121.51-34S423.75,540,423.75,540l-6.82-90.16-142.62-35.3-46.93,13.4Z"/><path class="cls-7" d="M303.86,266.47s-169.7,68.46-203,153.89,241.86-29.68,316.06-12c0,0-15.28-67.17-167.69-31.47l43-33.89Z"/><path class="cls-18" d="M416.42,408.32s-1.84-8.05-10.56-17.1c-15.8-6.1-64.89-22.49-130.48-19.84q-12.57,2.19-26.64,5.47l4.68-3.7c-55.08,6.38-123.24,27.51-153.94,49.67C72.49,503.53,343,390.85,416.42,408.32Z"/><path class="cls-7" d="M284.27,424.91c-3.11.86,191.51,70.25,240.25,57s-30.69-193.42-72.2-214.48L423.14,346v62S371.3,401,284.27,424.91Z"/><path class="cls-18" d="M460.87,273.51c11.08,33,44.47,137.09,32.36,157.27,0,0-58.52-14.45-107.11-23.81-22.84,1.32-57.15,5.66-101.85,17.94-3.11.86,191.51,70.25,240.25,57C570.07,469.55,503.64,311.29,460.87,273.51Z"/><line class="cls-15" x1="423.14" y1="345.96" x2="423.14" y2="407.17"/><path class="cls-17" d="M389,378.56c6.11,7.51,14.53,18.65,19.36,28.39a63.7,63.7,0,0,1,8.57,1.37S413,390.94,389,378.56Z"/><path class="cls-15" d="M219.59,439.54c73.69-15.89,160.4-40,197.34-31.22h38.53"/><line class="cls-15" x1="263.26" y1="355.72" x2="285.37" y2="298.83"/><path class="cls-15" d="M284.27,424.91s91.42,34.53,147.89,46.47"/><path class="cls-18" d="M469.07,296.82s34.11,92.25-2.8,103.48,24.05-1.39,47.72,14.24S469.07,296.82,469.07,296.82Z"/><path class="cls-18" d="M280.35,311.06s-88.3,48.67-96.24,75.62,45.13-8,62.46-20.29,15-3.59,15-3.59Z"/><path class="cls-16" d="M196.73,385.75s45.08-57.39,92.13-16.41c0,0-43.25,6.2-50,12.4C231.83,388.16,185.1,402.19,196.73,385.75Z"/><path class="cls-17" d="M238.84,381.74c5.76-5.27,37.84-10.53,47.35-12h0c-38.09-23.74-54.56,6.3-69.4,13.12s-20.06,2.89-20.06,2.89C185.1,402.19,231.83,388.16,238.84,381.74Z"/><path class="cls-15" d="M389,378.55c-23.14-11.95-64.91-19.23-139.77-1.7"/><polygon class="cls-19" points="628.31 353.63 795.56 353.63 841.42 482.3 640.13 482.3 628.31 353.63"/><polygon class="cls-20" points="789.73 373.63 630.28 373.63 628.31 353.63 795.25 353.63 789.73 373.63"/><polygon class="cls-21" points="795.38 353.63 789.73 373.63 826.63 482.3 841.42 482.3 795.38 353.63"/><polygon class="cls-21" points="883.38 487.74 820.9 339.14 795.53 339.14 792.96 346.87 845.92 495.56 880.82 495.56 883.38 487.74"/><polygon class="cls-3" points="883.38 487.74 848.48 487.74 795.53 339.14 820.9 339.14 883.38 487.74"/><path class="cls-14" d="M828.7,432.22a304.89,304.89,0,0,1,33.23,4.51L832.19,366q-12.77,2-25.46,4.58Z"/><polygon class="cls-3" points="952.65 487.75 917.61 487.76 847.63 339.76 873.1 339.75 952.65 487.75"/><polygon class="cls-15" points="883.38 487.74 848.48 487.74 795.53 339.14 820.9 339.14 883.38 487.74"/><polygon class="cls-22" points="848.48 487.74 845.92 495.56 880.82 495.56 883.38 487.74 848.48 487.74"/><polygon class="cls-21" points="952.65 487.75 873.1 339.75 847.63 339.76 845.92 347.46 915.93 495.55 950.97 495.55 952.65 487.75"/><polygon class="cls-3" points="952.65 487.75 917.61 487.76 847.63 339.76 873.1 339.75 952.65 487.75"/><path class="cls-14" d="M858.43,362.6,897.88,446c15,4.71,28.48,9.79,40.29,14.79l-53.78-100C875.78,361.1,867.11,361.73,858.43,362.6Z"/><polygon class="cls-15" points="952.65 487.75 917.61 487.76 847.63 339.76 873.1 339.75 952.65 487.75"/><polygon class="cls-20" points="917.61 487.76 915.93 495.55 950.97 495.55 952.65 487.75 917.61 487.76"/><line class="cls-15" x1="828.24" y1="353.63" x2="848.84" y2="353.63"/><line class="cls-15" x1="881.09" y1="482.3" x2="909.67" y2="482.3"/><path class="cls-14" d="M720.17,953c5.39-75.1,10.8-150.48,16.45-228.55.2-2.18,1.36-16.89-7.89-24.62-6.05-5.07-15.71-6.42-25.6-3.36a32.61,32.61,0,0,0-22.62,28.94L664.14,953Z"/><path class="cls-3" d="M720.17,953c5.18-72.16,10.38-144.61,15.81-219.73h0s-41-.9-43.93,34.78c-1.26,15.26-6.3,96.72-11.64,185Z"/><path class="cls-15" d="M720.17,953c5.39-75.1,10.8-150.48,16.45-228.55.2-2.18,1.36-16.89-7.89-24.62-6.05-5.07-15.71-6.42-25.6-3.36a32.61,32.61,0,0,0-22.62,28.94L664.14,953Z"/><circle class="cls-23" cx="697.25" cy="947.86" r="52.33"/><path class="cls-24" d="M702.58,973.29a52.33,52.33,0,0,1-39-62.89v0c.26-1.13.57-2.24.91-3.33a52.32,52.32,0,1,0,82.76,56.11A52.24,52.24,0,0,1,702.58,973.29Z"/><circle class="cls-15" cx="697.25" cy="947.86" r="52.33"/><ellipse class="cls-25" cx="940.44" cy="545.48" rx="31.96" ry="40.34" transform="translate(-115.11 805.82) rotate(-43.97)"/><path class="cls-26" d="M948.53,582c19.51.1,31.7-16.18,27.22-36.36S951.83,509,932.32,508.91Z"/><ellipse class="cls-27" cx="680.41" cy="545.03" rx="34.43" ry="37.45" transform="matrix(0.83, -0.56, 0.56, 0.83, -188.18, 470.48)"/><path class="cls-19" d="M645.15,545.38c1.72,20.18,18.9,36.37,38.37,36.17s33.86-16.74,32.14-36.92Z"/><ellipse class="cls-28" cx="816.47" cy="544.31" rx="34.43" ry="37.45" transform="matrix(0.83, -0.56, 0.56, 0.83, -164.8, 546.02)"/><path class="cls-29" d="M843.93,523.53c-12.32-16.61-34.61-20.77-49.79-9.3s-17.48,34.23-5.15,50.84Z"/><path class="cls-21" d="M740.59,206.5c-22.78-1.08-42.43,14.57-46.71,35.95h0l-2.73,15h0a44.58,44.58,0,0,0-.68,5.76c-1.19,24.65,18.14,45.58,43.18,46.76,23.31,1.1,43.35-15.3,47-37.44h0l1.92-11.08a44.23,44.23,0,0,0,1-5.59v-.06h0c.1-.86.17-1.71.21-2.58C785,228.61,765.64,207.68,740.59,206.5Z"/><g class="cls-30"><path class="cls-18" d="M737.57,265.23a.54.54,0,0,1-.38-.15.42.42,0,0,1-.05-.59s0,0,.05-.05l34.43-30.31A.52.52,0,0,1,772,234a.54.54,0,0,1,.38.15.44.44,0,0,1,0,.62l0,0L737.9,265.12a.57.57,0,0,1-.33.11m-33.23-16.9a.55.55,0,0,1-.38-.16.42.42,0,0,1-.05-.59l.05-.05,24.36-20.88a.42.42,0,0,1,.32-.11.58.58,0,0,1,.39.15.44.44,0,0,1,0,.62l0,0L705.49,247.5A30.07,30.07,0,0,0,716,268.7a36.09,36.09,0,0,0,23.85,8.86.5.5,0,0,1,.52.46.47.47,0,0,1-.47.47h0a37.22,37.22,0,0,1-24.55-9.13,31.09,31.09,0,0,1-10.81-21.08.46.46,0,0,1-.2.05M750.64,217l1.93-1.8a.51.51,0,0,1,.34-.13.54.54,0,0,1,.36.14.46.46,0,0,1,0,.64l0,0L752.05,217c4.43.35,8.23,3.5,8.87,7.68a7.32,7.32,0,0,1,.09.93c.16,4.35-3.31,8.09-8.15,8.56a8.37,8.37,0,0,1-1,.05c-4.78,0-9-3.28-9.7-7.71v-.25L728.65,238.8a.54.54,0,0,1-.34.12.56.56,0,0,1-.37-.13.46.46,0,0,1,0-.64l0,0L742.05,225c.16-4.1,3.54-7.52,8.16-8h.43m-13.45-10.74c-23.72,0-42.86,17-43.21,38.71v2c.8,21.56,20.11,39.54,44.1,40.59h2.17c23.73,0,42.88-16.95,43.22-38.72v-2c-.8-21.55-20.1-39.53-44.1-40.57h-2.18"/><path class="cls-11" d="M740.27,287.56H738.1c-24-1-43.3-19-44.1-40.59v-2c.35-21.76,19.49-38.71,43.21-38.71h2.18c24,1,43.3,19,44.1,40.57v2c-.34,21.77-19.49,38.72-43.22,38.72m-3.11-82.24c-24.25,0-43.82,17.32-44.17,39.59v2c.81,22.06,20.56,40.44,45.07,41.51h2.23c24.25,0,43.83-17.33,44.18-39.59v-2c-.81-22-20.56-40.43-45.08-41.49-.74,0-1.48-.05-2.22-.05"/><path class="cls-13" d="M749.49,218.05a7.75,7.75,0,0,0-6.31,5.87l6.31-5.87m1.77-.17h-.17l-8.05,7.5v.19a7.77,7.77,0,0,0,.08.83c.61,4,4.4,6.89,8.68,6.89h.92c4.34-.42,7.44-3.78,7.3-7.65a5.69,5.69,0,0,0-.08-.83l.49-.05-.49.05c-.61-3.95-4.39-6.9-8.68-6.9"/><path class="cls-13" d="M752.05,217l-1,.89h.17c4.29,0,8.07,3,8.68,6.9l.49,0h0l-.49,0a5.69,5.69,0,0,1,.08.83c.14,3.87-3,7.23-7.3,7.65h-.92c-4.28,0-8.07-2.94-8.68-6.89a7.77,7.77,0,0,1-.08-.83v-.19l-.94.87v.25c.68,4.43,4.92,7.71,9.7,7.71a8.37,8.37,0,0,0,1-.05c4.84-.47,8.31-4.21,8.15-8.56a7.32,7.32,0,0,0-.09-.93c-.64-4.18-4.44-7.33-8.87-7.68m-1.41,0h-.43c-4.62.45-8,3.87-8.16,8l1.13-1.06a7.75,7.75,0,0,1,6.31-5.87l1.15-1.07"/><path class="cls-13" d="M728.66,226.54a.42.42,0,0,0-.32.11L704,247.53a.42.42,0,0,0,0,.59l0,0a.55.55,0,0,0,.38.16.46.46,0,0,0,.2-.05v-.95a.47.47,0,0,1,.47-.47h0a.5.5,0,0,1,.51.47v.17L729,227.34a.44.44,0,0,0,0-.62l0,0a.58.58,0,0,0-.39-.15"/><path class="cls-13" d="M752.91,215.05a.51.51,0,0,0-.34.13l-1.93,1.8-1.15,1.07-6.31,5.87L742.05,225l-14.12,13.15a.46.46,0,0,0,0,.64l0,0a.56.56,0,0,0,.37.13.54.54,0,0,0,.34-.12l13.45-12.54.94-.87,8.05-7.5,1-.89,1.23-1.15a.46.46,0,0,0,0-.64l0,0a.54.54,0,0,0-.36-.14"/><path class="cls-13" d="M772,234a.5.5,0,0,0-.33.12L737.2,264.44a.42.42,0,0,0-.05.59s0,0,.05.05a.54.54,0,0,0,.38.15.57.57,0,0,0,.33-.11l34.44-30.31a.44.44,0,0,0,0-.62l0,0A.57.57,0,0,0,772,234"/><path class="cls-13" d="M705,246.86a.47.47,0,0,0-.48.46h0v.95a31.09,31.09,0,0,0,10.81,21.08,37.22,37.22,0,0,0,24.55,9.13.47.47,0,0,0,.49-.45v0a.5.5,0,0,0-.52-.46A36.09,36.09,0,0,1,716,268.7a30.06,30.06,0,0,1-10.53-21.2v-.17a.5.5,0,0,0-.51-.47"/></g><polygon class="cls-8" points="591.19 393.45 540 455.45 565.6 501.26 586.18 478.92 591.19 393.45"/><path class="cls-24" d="M1014,484.71a28.07,28.07,0,0,1-16.78-5.78,11.75,11.75,0,0,1-1-.81c-7-4.91-46.53-31.14-110.94-49.34-89.64-25.32-183.19-3.35-278.07,25.48a26.9,26.9,0,1,1-15.64-51.48c58.93-17.91,118.47-46.55,177-45.31a523.43,523.43,0,0,1,138,21.47,484.52,484.52,0,0,1,89.81,36.59c11.06,5.93,19.36,11,24.39,14.28,9.74,6.3,13.44,9,16.71,14.89a26.89,26.89,0,0,1-23.45,40Z"/><path class="cls-23" d="M996.31,415.53a484.52,484.52,0,0,0-89.81-36.59,523.43,523.43,0,0,0-138-21.47c-58.58-1.24-118.12,27.4-177,45.31a26.87,26.87,0,0,0-18.28,19.31C599.85,409.71,710,361,783.82,365.21c74.49,4.24,180,37,235.76,63.89C1014.49,425.84,1006.59,421,996.31,415.53Z"/><path class="cls-15" d="M1014,484.71a28.07,28.07,0,0,1-16.78-5.78,11.75,11.75,0,0,1-1-.81c-7-4.91-46.53-31.14-110.94-49.34-89.64-25.32-183.19-3.35-278.07,25.48a26.9,26.9,0,1,1-15.64-51.48c58.93-17.91,118.47-46.55,177-45.31a523.43,523.43,0,0,1,138,21.47,484.52,484.52,0,0,1,89.81,36.59c11.06,5.93,19.36,11,24.39,14.28,9.74,6.3,13.44,9,16.71,14.89a26.89,26.89,0,0,1-23.45,40Z"/><path class="cls-24" d="M559.07,445.72C613.32,423.16,763,347.64,896.92,347c30.8-.14,51.08,12,61.82,28.48,17.34,26.57-10.43,24.47-25.26,23.58-137.77-8.37-362.79,100.1-365.32,101.2A26.91,26.91,0,0,1,540,455.13"/><path class="cls-23" d="M579.86,457.25c28.58-7.21,307-154.07,374.38-81.73a61,61,0,0,1,10,13.92c0-3.42-1.6-7.94-5.5-13.92-10.74-16.45-31-28.62-61.82-28.48-134,.6-283.6,76.12-337.85,98.68l-8.06,4,1.18,1.41C553.69,452.74,551.29,464.47,579.86,457.25Z"/><path class="cls-15" d="M559.07,445.72C613.32,423.16,763,347.64,896.92,347c30.8-.14,51.08,12,61.82,28.48,17.34,26.57-10.43,24.47-25.26,23.58-137.77-8.37-362.79,100.1-365.32,101.2A26.91,26.91,0,0,1,540,455.13"/><polygon class="cls-21" points="585.38 434.13 557.09 444.66 557.09 427.28 585.38 416.76 585.38 434.13"/><polygon class="cls-31" points="585.38 430.5 557.09 441.03 557.09 423.65 585.38 413.12 585.38 430.5"/><path class="cls-14" d="M710.12,966.17c-6-5.06-15.7-6.36-25.59-3.36a32.63,32.63,0,0,0-22.63,28.94l-5.22,75.6a534.75,534.75,0,0,0,57-15.9c1.1-15.61,2.51-35.29,4.34-60.65C718.21,988.61,719.37,973.91,710.12,966.17Z"/><path class="cls-3" d="M710.12,966.17c-6-5.06-15.7-6.41-25.59-3.36a30,30,0,0,0-4,1.58l-7.64,99.12q20.73-5.23,40.78-12.06c1.1-15.62,2.51-35.3,4.34-60.65C718.21,988.61,719.37,973.91,710.12,966.17Z"/><path class="cls-32" d="M710.12,966.17c-6-5.06-15.7-6.36-25.59-3.36a32.63,32.63,0,0,0-22.63,28.94l-5.22,75.6a534.75,534.75,0,0,0,57-15.9c1.1-15.61,2.51-35.29,4.34-60.65C718.21,988.61,719.37,973.91,710.12,966.17Z"/><path class="cls-14" d="M979.75,853.47C964.37,809.55,948.84,765.2,933,719.9c-.68-2.09-5.46-16-17-19.47-7.57-2.24-17,.36-24.82,7.09a32.61,32.61,0,0,0-9.26,35.55l56.53,161.4A544.33,544.33,0,0,0,979.75,853.47Z"/><path class="cls-3" d="M979.73,853.48c-14.43-41.16-29-82.74-43.83-125.24,0,0-38,15.46-26.49,49.38,3.67,10.84,20.12,56.5,40.79,113.58Q965.79,873,979.73,853.48Z"/><path class="cls-32" d="M979.75,853.47C964.37,809.55,948.84,765.2,933,719.9c-.68-2.09-5.46-16-17-19.47-7.57-2.24-17,.36-24.82,7.09a32.61,32.61,0,0,0-9.26,35.55l56.53,161.4A544.33,544.33,0,0,0,979.75,853.47Z"/></g></g></svg>