<svg xmlns="http://www.w3.org/2000/svg" viewBox="0 0 1080 1080"><defs><style>.cls-1{fill:#ffe199;}.cls-2,.cls-36{fill:#6b80c4;}.cls-3{fill:#506093;}.cls-17,.cls-24,.cls-25,.cls-30,.cls-32,.cls-34,.cls-35,.cls-4{fill:none;}.cls-10,.cls-11,.cls-12,.cls-13,.cls-14,.cls-15,.cls-16,.cls-17,.cls-24,.cls-36,.cls-4,.cls-8,.cls-9{stroke:#364062;}.cls-11,.cls-12,.cls-13,.cls-14,.cls-15,.cls-16,.cls-17,.cls-24,.cls-25,.cls-29,.cls-30,.cls-32,.cls-34,.cls-35,.cls-36,.cls-4,.cls-8{stroke-linecap:round;stroke-linejoin:round;}.cls-5{fill:#fff9eb;}.cls-6{fill:#c7c4ab;}.cls-7{fill:#a19e8a;}.cls-15,.cls-26,.cls-8,.cls-9{fill:#364062;}.cls-10,.cls-9{stroke-miterlimit:10;}.cls-9{stroke-width:0.5px;}.cls-10,.cls-16,.cls-18{fill:#ffd266;}.cls-11{fill:#6effd2;}.cls-12,.cls-20{fill:#ffb400;}.cls-13{fill:#9effe1;}.cls-14{fill:#0dffb4;}.cls-17{stroke-width:5px;}.cls-19{fill:#ffc333;}.cls-21{fill:#fff0cc;}.cls-22{fill:#b27773;}.cls-23{fill:#855956;}.cls-24,.cls-25{stroke-width:0.84px;}.cls-25{stroke:#855956;}.cls-27{fill:#1b1f2d;}.cls-28{fill:#3dffc3;}.cls-29{fill:#f0c5a2;}.cls-29,.cls-30{stroke:#ffb400;}.cls-31{fill:#a6b3dc;}.cls-32{stroke:#6b80c4;}.cls-33{fill:#8999d0;}.cls-34{stroke:#e59e00;}.cls-35{stroke:#ffc333;}.cls-37{fill:#0abf87;}.cls-38{fill:#07805a;}</style></defs><g id="Layer_2" data-name="Layer 2"><g id="Layer_1-2" data-name="Layer 1"><path class="cls-1" d="M540,0C241.77,0,0,241.77,0,540A541,541,0,0,0,17,674.92H1063A541,541,0,0,0,1080,540C1080,241.77,838.23,0,540,0Z"/><path class="cls-2" d="M202.81,537.13c-1.27-4-1.12-7.48.45-10.49,1.92-3.69,5.71-6.13,11.25-7.24h0a4.08,4.08,0,0,1,1.58,8c-3.77.76-5.16,2.07-5.66,3-.85,1.62-.11,4.06.66,5.81a4.05,4.05,0,1,1-7.42,3.25A24.08,24.08,0,0,1,202.81,537.13Z"/><path class="cls-3" d="M209.33,522.45s-6.86,10-3,17.37c0,0,.41,1.57-1.4,1.21a4,4,0,0,0,6.14-4.84c-.77-1.75-1.51-4.19-.66-5.81A4.09,4.09,0,0,1,212,528.8C210.71,525.31,209.33,522.45,209.33,522.45Z"/><path class="cls-4" d="M202.81,537.13c-1.27-4-1.12-7.48.45-10.49,1.92-3.69,5.71-6.13,11.25-7.24h0a4.08,4.08,0,0,1,1.58,8c-3.77.76-5.16,2.07-5.66,3-.85,1.62-.11,4.06.66,5.81a4.05,4.05,0,1,1-7.42,3.25A24.08,24.08,0,0,1,202.81,537.13Z"/><path class="cls-5" d="M359.27,322.29c-17.55-40.24,13.28-92.52,68.87-116.76S543,194.24,560.57,234.47,547.29,327,491.71,351.24a143.74,143.74,0,0,1-50.33,12.06h0l-38,45.82s1.43-28.21,2.36-49.54C384.36,353.61,367.37,340.85,359.27,322.29Z"/><path class="cls-6" d="M219.15,533.74a15.19,15.19,0,0,1-5-28.82c39.73-19,88.25-29.81,144.2-32.06,44.14-1.77,93.07,1.72,145.43,10.39,88.8,14.7,156,38.89,158.82,39.92a15.19,15.19,0,0,1-10.37,28.56c-.86-.32-67.93-24.41-153.93-38.59-78.37-12.92-189-20.09-271,19.19A15.26,15.26,0,0,1,219.15,533.74Z"/><path class="cls-7" d="M669.94,546.06c-29.66-14.35-100.09-41.91-221.64-53.49-137.55-13.1-217.73,21.86-222.39,24.36,2.57,3.21-10.73,16.39-6.76,16.81a15.26,15.26,0,0,0,8.15-1.41c82-39.28,192.66-32.11,271-19.19,86,14.18,153.07,38.27,153.93,38.59A15.2,15.2,0,0,0,669.94,546.06Z"/><path class="cls-4" d="M219.15,533.74a15.19,15.19,0,0,1-5-28.82c39.73-19,88.25-29.81,144.2-32.06,44.14-1.77,93.07,1.72,145.43,10.39,88.8,14.7,156,38.89,158.82,39.92a15.19,15.19,0,0,1-10.37,28.56c-.86-.32-67.93-24.41-153.93-38.59-78.37-12.92-189-20.09-271,19.19A15.26,15.26,0,0,1,219.15,533.74Z"/><path class="cls-2" d="M672.64,201.24h0a130.5,130.5,0,0,1,130.5,130.5V989.35h-261V331.77A130.5,130.5,0,0,1,672.61,201.24Z"/><polygon class="cls-3" points="765.92 541.21 803.11 648.5 803.11 550.17 765.92 541.21"/><path class="cls-3" d="M542.57,331.74a130.5,130.5,0,0,1,130.49-130.5h.2a8.65,8.65,0,0,1,6.19,14.61l-41.39,43.73a128.19,128.19,0,0,0-35.12,87.93l-1.2,641.81H542.57Z"/><path class="cls-4" d="M672.64,201.24h0a130.5,130.5,0,0,1,130.5,130.5V989.35h-261V331.77A130.5,130.5,0,0,1,672.61,201.24Z"/><rect class="cls-8" x="594.7" y="359.92" width="65.17" height="65.17" transform="translate(-93.81 558.52) rotate(-45)"/><path class="cls-9" d="M586.07,470.7H674.7a20.2,20.2,0,0,1,20.2,20.2h0a20.2,20.2,0,0,1-20.2,20.2H586.07a20.2,20.2,0,0,1-20.2-20.2h0A20.2,20.2,0,0,1,586.07,470.7Z"/><path class="cls-10" d="M595.69,470.7h88.63a20.2,20.2,0,0,1,20.2,20.2h0a20.2,20.2,0,0,1-20.2,20.2H595.69a20.2,20.2,0,0,1-20.2-20.2h0A20.2,20.2,0,0,1,595.69,470.7Z"/><circle class="cls-11" cx="720.82" cy="603.15" r="21.85"/><path class="cls-12" d="M720.77,581.3A21.85,21.85,0,1,0,720,625h.93Z"/><circle class="cls-13" cx="722.63" cy="667.19" r="21.85"/><path class="cls-14" d="M734.91,685.26a21.85,21.85,0,0,0-24.22-36.38l-.33.23Z"/><line class="cls-4" x1="674.81" y1="737.66" x2="754.32" y2="737.66"/><line class="cls-4" x1="674.81" y1="754.46" x2="754.32" y2="754.46"/><line class="cls-4" x1="674.81" y1="771.26" x2="754.32" y2="771.26"/><line class="cls-4" x1="674.81" y1="788.06" x2="754.32" y2="788.06"/><line class="cls-4" x1="674.81" y1="804.86" x2="754.32" y2="804.86"/><line class="cls-4" x1="674.81" y1="821.66" x2="754.32" y2="821.66"/><line class="cls-4" x1="674.81" y1="838.46" x2="754.32" y2="838.46"/><line class="cls-4" x1="674.81" y1="855.26" x2="754.32" y2="855.26"/><line class="cls-4" x1="674.81" y1="872.06" x2="754.32" y2="872.06"/><line class="cls-4" x1="542.57" y1="581.3" x2="610.44" y2="581.3"/><line class="cls-4" x1="542.57" y1="598.1" x2="610.44" y2="598.1"/><line class="cls-4" x1="542.57" y1="614.9" x2="610.44" y2="614.9"/><line class="cls-4" x1="542.57" y1="631.7" x2="610.44" y2="631.7"/><line class="cls-4" x1="542.57" y1="648.5" x2="610.44" y2="648.5"/><line class="cls-4" x1="542.57" y1="665.3" x2="610.44" y2="665.3"/><line class="cls-4" x1="542.57" y1="682.1" x2="610.44" y2="682.1"/><line class="cls-4" x1="542.57" y1="698.9" x2="610.44" y2="698.9"/><line class="cls-4" x1="542.57" y1="715.7" x2="610.44" y2="715.7"/><rect class="cls-15" x="627.29" y="346.42" width="6.52" height="92.16"/><rect class="cls-16" x="601.23" y="359.92" width="65.17" height="65.17" transform="translate(-91.91 563.14) rotate(-45)"/><line class="cls-17" x1="630.55" y1="417.01" x2="630.55" y2="368"/><path class="cls-18" d="M68.06,802.63h943.88a536.75,536.75,0,0,0,51.41-129.08H16.65A536.75,536.75,0,0,0,68.06,802.63Z"/><path class="cls-19" d="M342.24,675.17l14.37,30.35,23.32,2L402.61,731s8.38.36,11.33-.21,2.25-12.14-2.25-16.39-39.26-38.31-38.66-45-28.68,5.74-26.57,5.74"/><path class="cls-20" d="M66.36,799.54C158.15,966.69,335.84,1080,540,1080s381.85-113.31,473.64-280.46Z"/><path class="cls-19" d="M193.45,673.93H151.33s56.81,59.83,72.34,60.09,33.42-4,38.85-3,24.42,8.84,37.35,2.89S193.45,673.93,193.45,673.93Z"/><path class="cls-5" d="M187.2,675.17s4.85-178.11,73.8-171.65c178.9,16.75,132.85,99.63,124.7,171.65Z"/><path class="cls-21" d="M213.83,572.61c30.57-59.54,87-38.64,87-38.64l6.22-23.76A413.26,413.26,0,0,0,261,503.52c-42.36-4-60.54,61.7-68.25,113C198.13,604.09,205.13,589.56,213.83,572.61Z"/><polygon class="cls-21" points="262.02 570.75 250.29 674.92 193.45 673.93 226.09 565.34 262.02 570.75"/><path class="cls-22" d="M346.83,525.69c-.83.88-15.57,16-36.55,11.6-19.74-4.11-27.53-21.8-28.17-23.35l13.75-75.76,64.73,11.75Z"/><path class="cls-23" d="M327.1,535.9c-28.26.45-30.54-24.7-32.52-32.4s0-29.94,0-29.94l-1.3-21.17q-5.59,30.78-11.17,61.55c.64,1.55,8.43,19.24,28.17,23.35A37.33,37.33,0,0,0,330.21,536,26.63,26.63,0,0,0,327.1,535.9Z"/><path class="cls-23" d="M318,471.7s-11.69,21.37,30,47.74L354.44,483Z"/><path class="cls-22" d="M378.16,431.88,377.48,473c6.14,41.09-22.26,34.73-41.28,26.35-10.32-4.55-19.89-13.06-24.8-28.52,0,0-38.8,15.52-35.3-26.45s38.44-46.55,56.27-44.81S379.19,405.73,378.16,431.88Z"/><line class="cls-24" x1="368.99" y1="430.42" x2="378.92" y2="431.25"/><path class="cls-25" d="M366.51,448.4a60.11,60.11,0,0,0,1.54,13.89,1.77,1.77,0,0,1-.06,1.39,8.62,8.62,0,0,1-4.19,1.23"/><line class="cls-24" x1="341.16" y1="437.15" x2="358.41" y2="436.82"/><path class="cls-24" d="M362.56,479.84s-12.58-2.11-14-4.54"/><path class="cls-26" d="M282.26,401.45c-11.42,18.65-16.65,57.81-8,65.27s17.2,20.35,17.2,20.35,9.82-33.24,12.82-35.49,5.49,10,10.67,10.33,16.81-26.6,9.41-41.12,36.4-2.46,51.44-6.42,6.83-34.69,6.83-34.69S293.67,382.79,282.26,401.45Z"/><path class="cls-27" d="M316.29,386.9c-16.15,3.26-30,7.92-34,14.55-11.42,18.65-16.65,57.81-8,65.27s17.2,20.35,17.2,20.35-2.19-9.82-9.32-30.92S316.27,386.92,316.29,386.9Z"/><path class="cls-3" d="M262.52,701s-1.81,37.59-31.7,22.64L219,692.08S234.44,679.1,262.52,701Z"/><path class="cls-23" d="M289.83,710.42s20.06,4.46,23,4.92c0,0,1.09,3.17-2.21,3S289.83,710.42,289.83,710.42Z"/><path class="cls-22" d="M251.2,692.63s20,15.39,27.69,15.54,36.39,10.27,43.18,14.34S307,734.59,295.8,734s-21.59-3.93-24.16-6.65-25.35-2.47-37.58-12-10.27-29.61-10.27-29.61Z"/><path class="cls-23" d="M245.91,718.36s-3.32-21.9.76-28.09L230.3,711.64S240,719.88,245.91,718.36Z"/><path class="cls-23" d="M270.07,723c-5-.91-34-17.51-34-17.51l-7.74,3.27a22.67,22.67,0,0,0,5.69,6.6c12.23,9.48,35,9.24,37.58,12s13,6,24.16,6.65a29,29,0,0,0,4.06-.11C278.33,729.34,270.07,723,270.07,723Z"/><path class="cls-5" d="M253.83,503.53s-50-5.76-84.9,147.29a35.78,35.78,0,0,0,13.89,36.95c19.86,14.36,48,35.86,48,35.86,1.22-17.29,11-28.65,20-28.75,1.35,0,3.58-.2,11.73,6.11l-49.37-39.86,51.64-91.94Z"/><path class="cls-21" d="M253.83,503.53s-50-5.76-84.9,147.29a35.78,35.78,0,0,0,13.89,36.95c19.86,14.36,48,35.86,48,35.86a45.64,45.64,0,0,1,1.61-9.35c-.45-.95-.71-1.52-.71-1.52s-41.67-27.62-49.82-39.26,1.36-41.36,31.93-100.89c12.52-24.38,29.37-35.27,44.92-39.63Z"/><path class="cls-4" d="M229,673.93a154.68,154.68,0,0,0-20-15.32"/><line class="cls-4" x1="213.15" y1="661.13" x2="264.33" y2="566.47"/><path class="cls-4" d="M296.55,715.65s26.17,7.72,25.74,10.57"/><path class="cls-4" d="M292,721.5s23.29,5.47,23.95,9"/><path class="cls-4" d="M288,726s14.26,4.51,18.61,6.81"/><path class="cls-3" d="M362.56,701.89s15.91,15.25,39.46,0l-5-17.66-33.5.75Z"/><path class="cls-22" d="M415.91,718.38,402.3,705.52,397.05,687,372,689.06l-6.78,7.55,11.15,9.66,11.8,16.84c1.71,3.58,1.51,5.82,5.32,6.6.29-.2,1.7-.51,2-.77,2.76-2.4-3.51-14.82-3.51-14.82s12.85,16,17.1,15.34c2.24-.32,2.43-.7,4.75-1.47a5.75,5.75,0,0,0,3.58-7.29A5.85,5.85,0,0,0,415.91,718.38Z"/><path class="cls-23" d="M417.7,722.3c-.8,1.8-3.06,3.92-9.29,3.93a3,3,0,0,1-2-.73L393.24,714l-1.3.11s12.85,16,17.1,15.34c2.24-.32,2.43-.7,4.75-1.47A5.73,5.73,0,0,0,417.7,722.3Z"/><path class="cls-23" d="M395.45,728.94a2.16,2.16,0,0,0,.65-1.37,3.07,3.07,0,0,1-2.87.14c-2.23-1.23-14.36-25.29-14.36-25.29a14.49,14.49,0,0,1,13.34-6.49,14,14,0,0,1,8.69,4.64l-3.33-11.85-25.61.34-6.78,7.55,11.15,9.66,11.8,16.84c1.71,3.58,1.51,5.82,5.32,6.6C393.74,729.51,395.15,729.2,395.45,728.94Z"/><path class="cls-5" d="M376.55,541.21s35.43,28.88,23.66,134L402,701.89s-19.67-25.81-39.46,0l-7.42-26.27Z"/><path class="cls-4" d="M400.21,675.17s-9.75-20.12-23.78-19.92"/><path class="cls-22" d="M387.51,712.09l3.93-6-12.57-3.63-5.69,7.48-5.84,3.18a.78.78,0,0,0-.3,1.06l.09.13c1.2,1.31,4.24,3.66,9.3,1.38l1.43-.62a5.88,5.88,0,0,1,6.23,2.31l3.36-5.16h.23Z"/><path class="cls-4" d="M402.3,705.52s-8.13-6.95-14.77-6.12"/><path class="cls-4" d="M389.23,714s1.84,0,4.41-.13"/><path class="cls-4" d="M398.26,713.46l6,5.3,6,6.08a2.3,2.3,0,0,1,.64,1.93c-.15,1-.55,2.23-1.68,2.47"/><path class="cls-4" d="M403.57,712.46l11.62,10.21a2.28,2.28,0,0,1,.7,2.33c-.32,1.1-.82,2.48-1.41,2.71"/><path class="cls-23" d="M377.9,712.46c-3.67,2.06-8.26,4-10.89,1a.74.74,0,0,0,.12.79c1.2,1.31,4.24,3.66,9.3,1.38l1.43-.62a5.88,5.88,0,0,1,6.23,2.31l1.9-2.91h0S381.58,710.41,377.9,712.46Z"/><path class="cls-21" d="M353.56,584.13l-16.31,90.79,17.89.25,7.42,26.72a25.36,25.36,0,0,1,16.63-11.62s-16.8-30.72-11.14-33.67,5.44-1.35,5.44-1.35l-6.55-4.37Z"/><line class="cls-4" x1="353.56" y1="581.3" x2="355.14" y2="675.62"/><path class="cls-5" d="M535,413.48c0-17.44-25.74-31.58-57.49-31.58S420,396,420,413.48s25.74,31.59,57.49,31.59a97,97,0,0,0,26.68-3.6h0L532,452.12s-6.59-10.05-11.5-17.67C529.47,428.88,535,421.53,535,413.48Z"/><polygon class="cls-28" points="495.05 396.38 470.63 420.8 458.41 408.59 452.31 414.7 464.52 426.91 470.63 433.02 476.73 426.91 501.16 402.48 495.05 396.38"/><path class="cls-1" d="M451.42,288.7q3.48-6.24,11.69-11.85a51.9,51.9,0,0,0,8.89-7.37,12.45,12.45,0,0,0-.77-17.58l-.23-.2a15,15,0,0,0-10.48-3.87,14.62,14.62,0,0,0-11.7,5.16q-4.41,5.17-4.1,13.37H420a36.67,36.67,0,0,1,5.39-19.67A37.32,37.32,0,0,1,440.25,233a45.85,45.85,0,0,1,21.5-4.93,45.31,45.31,0,0,1,19.52,4.1,33.4,33.4,0,0,1,13.67,11.24,27.68,27.68,0,0,1,4.94,16.11q0,16.39-18.69,27.34A46.7,46.7,0,0,0,474,291.8a15.24,15.24,0,0,0-4,5.62,23,23,0,0,0-1.45,8.89H447.92Q447.92,294.93,451.42,288.7Zm-2,48.69a12.31,12.31,0,0,1-3.65-9.19,12,12,0,0,1,3.73-9,14.11,14.11,0,0,1,18.76,0,12.11,12.11,0,0,1,3.65,9,12.31,12.31,0,0,1-3.65,9.19,14.21,14.21,0,0,1-18.84,0Z"/><path class="cls-29" d="M361.6,449.41a13.08,13.08,0,0,1-26.16,0h0c0-7.22,5.86-7.88,13.08-7.88S361.6,442.19,361.6,449.41Z"/><path class="cls-29" d="M388.9,449.41c0,7.23-4.79,13.09-10.69,13.09s-10.7-5.86-10.7-13.09,4.79-7.88,10.7-7.88S388.9,442.19,388.9,449.41Z"/><path class="cls-26" d="M355.89,449.54c-.09,1.49-1,2.6-2.1,2.48s-1.87-1.44-1.78-2.93,1-1.34,2.1-1.22S356,448.05,355.89,449.54Z"/><ellipse class="cls-26" cx="376.7" cy="450.47" rx="1.41" ry="2.71"/><line class="cls-30" x1="367.51" y1="449.41" x2="361.6" y2="449.41"/><line class="cls-30" x1="335.44" y1="449.41" x2="311.65" y2="449.41"/><path class="cls-22" d="M316.29,459.44c-.65-6.73-4.83-11.84-9.34-11.41s-7.65,6.24-7,13,4.83,11.85,9.34,11.42"/><path class="cls-25" d="M304.71,454.7a6.53,6.53,0,0,1,6.12,6.87"/><path class="cls-25" d="M309.46,457.13s-4.93-.35-5.19,2.78"/><path class="cls-21" d="M284,503.34l-8.16,9.43,24,47.14,21.49-22.15S297.15,524.74,284,503.34Z"/><polygon class="cls-5" points="347.57 521.66 321.35 537.76 334.46 564.06 348.52 527.73 347.57 521.66"/><polyline class="cls-4" points="321.35 537.76 334.46 564.06 348.52 527.73 347.57 521.66"/><line class="cls-4" x1="321.35" y1="537.76" x2="319.92" y2="673.93"/><line class="cls-4" x1="330.21" y1="584.14" x2="353.95" y2="586.09"/><rect class="cls-31" x="386.23" y="648.37" width="177.78" height="111.45"/><polygon class="cls-2" points="386.23 761.3 365.18 735.49 365.18 740.72 386.23 766.53 386.23 761.3"/><polygon class="cls-31" points="365.18 735.49 513.13 735.49 386.23 761.3 365.18 735.49"/><rect class="cls-2" x="386.23" y="652.42" width="177.78" height="114.11"/><circle class="cls-5" cx="475" cy="708.52" r="9.12"/><polygon class="cls-5" points="710.8 718.05 802.6 718.05 820.55 762.44 714.98 762.44 710.8 718.05"/><line class="cls-32" x1="798.83" y1="753.09" x2="726.72" y2="753.09"/><line class="cls-32" x1="795.07" y1="747.19" x2="726" y2="747.19"/><line class="cls-32" x1="794.35" y1="741.3" x2="725.28" y2="741.3"/><line class="cls-32" x1="791.61" y1="735.4" x2="724.56" y2="735.4"/><line class="cls-32" x1="788.58" y1="729.5" x2="759.75" y2="729.5"/><path class="cls-2" d="M783.79,730.12a4.05,4.05,0,1,1,.63-8.08c1.91.15,4.45.05,5.7-1.28.75-.79,1.54-2.54,1-6.35a4.07,4.07,0,0,1,7.79-2.32,4.13,4.13,0,0,1,.24,1.2h0c.77,5.6-.29,10-3.14,13-2.33,2.47-5.6,3.77-9.76,3.87A22.44,22.44,0,0,1,783.79,730.12Z"/><path class="cls-3" d="M798,719.21s-7.18,9.76-15.43,8.5c0,0-1.62.14-.68,1.73a4,4,0,0,1,2.55-7.4c1.91.15,4.45.05,5.7-1.28a4.17,4.17,0,0,0,1-2C794.82,718.84,798,719.21,798,719.21Z"/><path class="cls-4" d="M783.79,730.12a4.05,4.05,0,1,1,.63-8.08c1.91.15,4.45.05,5.7-1.28.75-.79,1.54-2.54,1-6.35a4.07,4.07,0,0,1,7.79-2.32,4.13,4.13,0,0,1,.24,1.2h0c.77,5.6-.29,10-3.14,13-2.33,2.47-5.6,3.77-9.76,3.87A22.44,22.44,0,0,1,783.79,730.12Z"/><path class="cls-6" d="M784.82,726.15a14.83,14.83,0,0,1-9.92-25.86c35.81-32.18,52-61.9,48.13-88.35-4.17-28.46-31-54.55-79.67-77.56A14.83,14.83,0,0,1,756,507.56c9.27,4.38,31,14.64,51.48,30.91,26.08,20.7,41.17,44,44.86,69.18,5.4,36.88-14,75.47-57.65,114.7A14.8,14.8,0,0,1,784.82,726.15Z"/><path class="cls-7" d="M849.78,595.86c1.37,28.23-9,74.77-71.46,127.35-.36.29-.69.58-1,.87a14.79,14.79,0,0,0,17.44-1.73c43.66-39.23,63-77.82,57.65-114.7A86.18,86.18,0,0,0,849.78,595.86Z"/><path class="cls-7" d="M823.57,620.89c13-52.44-76.07-94.37-88.69-100a14.84,14.84,0,0,0,8.48,13.51c48.7,23,75.5,49.1,79.67,77.56a53.13,53.13,0,0,1,.53,9A.56.56,0,0,0,823.57,620.89Z"/><path class="cls-4" d="M784.82,726.15a14.83,14.83,0,0,1-9.92-25.86c35.81-32.18,52-61.9,48.13-88.35-4.17-28.46-31-54.55-79.67-77.56A14.83,14.83,0,0,1,756,507.56c9.27,4.38,31,14.64,51.48,30.91,26.08,20.7,41.17,44,44.86,69.18,5.4,36.88-14,75.47-57.65,114.7A14.8,14.8,0,0,1,784.82,726.15Z"/><path class="cls-12" d="M760,729.27l4.45-2.55,31.45-28.25a2,2,0,0,0-2-2l-.29,0L763,725.26Z"/><path class="cls-2" d="M763.38,717.05a4.1,4.1,0,0,1,1.2-2.2,17.63,17.63,0,0,0,.4-3.15,15.73,15.73,0,0,1,7.24-12.19,4.05,4.05,0,1,1,4.09,7h0a7.62,7.62,0,0,0-3.24,5.69c-.3,4.78-1.15,7.3-2.93,8.69a4.45,4.45,0,0,1-3.52.89,4,4,0,0,1-1.3-.48A4.07,4.07,0,0,1,763.38,717.05Z"/><path class="cls-3" d="M763.84,716.75c2.92,2.07,5.46.31,5.28-1.17a11.31,11.31,0,0,1,5.57-11.47c2.74-1.69,2.25-3.83,2.25-3.83l.56.33c.09.12.18.22.26.35a4.06,4.06,0,0,1-1.45,5.55,7.62,7.62,0,0,0-3.24,5.69c-.3,4.78-1.15,7.3-2.93,8.69a4.45,4.45,0,0,1-3.52.89,4.08,4.08,0,0,1-3.3-4.56Z"/><path class="cls-4" d="M763.38,717.05a4.1,4.1,0,0,1,1.2-2.2,17.63,17.63,0,0,0,.4-3.15,15.73,15.73,0,0,1,7.24-12.19,4.05,4.05,0,1,1,4.09,7h0a7.62,7.62,0,0,0-3.24,5.69c-.3,4.78-1.15,7.3-2.93,8.69a4.45,4.45,0,0,1-3.52.89,4,4,0,0,1-1.3-.48A4.07,4.07,0,0,1,763.38,717.05Z"/><path class="cls-2" d="M768.48,727.6a4.2,4.2,0,0,1-.72-1.18,4.42,4.42,0,0,1,.22-3.63c1-2,3.33-3.32,8-4.51a7.69,7.69,0,0,0,5-4.26,4.05,4.05,0,0,1,7.64,2.7,15.68,15.68,0,0,1-10.59,9.4,18.53,18.53,0,0,0-3,1,4,4,0,0,1-2,1.58A4.05,4.05,0,0,1,768.48,727.6Z"/><path class="cls-3" d="M773,726.79a6.45,6.45,0,0,0,1.43,1,4,4,0,0,1-5.66.08l-.25-.27a4.2,4.2,0,0,1-.72-1.18,4.42,4.42,0,0,1,.22-3.63c1-2,3.33-3.32,8-4.51a7.69,7.69,0,0,0,5-4.26,4,4,0,0,1,5.06-2.53,4.43,4.43,0,0,1,1,.53c-.8.32-2.87,1.47-4.55,5.21-2.13,4.76-7,4.87-7.64,5.2S770.15,724.29,773,726.79Z"/><path class="cls-4" d="M768.48,727.6a4.2,4.2,0,0,1-.72-1.18,4.42,4.42,0,0,1,.22-3.63c1-2,3.33-3.32,8-4.51a7.69,7.69,0,0,0,5-4.26,4.05,4.05,0,0,1,7.64,2.7,15.68,15.68,0,0,1-10.59,9.4,18.53,18.53,0,0,0-3,1,4,4,0,0,1-2,1.58A4.05,4.05,0,0,1,768.48,727.6Z"/><path class="cls-19" d="M919.49,732.27l-13.8,38.47,48.36,17.32h65.72a536.29,536.29,0,0,0,25-55.79Z"/><polygon class="cls-2" points="1005.02 751.24 997.82 739.79 997.82 644.15 1005.02 655.59 1005.02 751.24"/><polygon class="cls-33" points="877.06 715.99 955.85 715.99 892.04 738.35 877.06 715.99"/><polygon class="cls-18" points="882.45 699.15 966.86 699.15 1012.89 743.54 1012.89 765.73 907.32 765.73 882.45 721.35 882.45 699.15"/><polygon class="cls-5" points="882.45 699.15 966.86 699.15 1012.89 743.54 907.32 743.54 882.45 699.15"/><line class="cls-32" x1="994.92" y1="734.19" x2="922.8" y2="734.19"/><line class="cls-32" x1="986.37" y1="728.29" x2="917.3" y2="728.29"/><line class="cls-32" x1="980.87" y1="722.4" x2="911.8" y2="722.4"/><line class="cls-32" x1="973.34" y1="716.5" x2="906.3" y2="716.5"/><rect class="cls-19" x="907.32" y="743.54" width="105.57" height="22.19"/><line class="cls-34" x1="1012.89" y1="747.91" x2="907.32" y2="747.91"/><line class="cls-34" x1="1000.87" y1="751.56" x2="909.53" y2="751.56"/><line class="cls-35" x1="1009.93" y1="755.8" x2="922.98" y2="755.8"/><line class="cls-35" x1="1005.1" y1="760.17" x2="910.13" y2="760.17"/><line class="cls-35" x1="1009.93" y1="763.19" x2="949.26" y2="763.19"/><polygon class="cls-2" points="877.02 716.03 892 732.05 905.5 755.8 1017.67 755.8 1017.67 770.74 905.69 770.74 877.02 716.03"/><rect class="cls-3" x="905.5" y="755.8" width="112.17" height="14.95"/><polygon class="cls-33" points="877.06 674.11 955.85 674.11 892.04 696.46 877.06 674.11"/><polygon class="cls-18" points="882.45 657.27 966.86 657.27 1012.89 701.66 1012.89 723.85 907.32 723.85 882.45 679.46 882.45 657.27"/><polygon class="cls-21" points="882.45 657.27 966.86 657.27 1012.89 701.66 907.32 701.66 882.45 657.27"/><line class="cls-32" x1="994.92" y1="692.31" x2="922.8" y2="692.31"/><line class="cls-32" x1="986.37" y1="686.41" x2="917.3" y2="686.41"/><line class="cls-32" x1="980.87" y1="680.51" x2="911.8" y2="680.51"/><line class="cls-32" x1="973.34" y1="674.62" x2="906.3" y2="674.62"/><rect class="cls-19" x="907.32" y="701.66" width="105.57" height="22.19"/><line class="cls-34" x1="1012.89" y1="706.03" x2="907.32" y2="706.03"/><line class="cls-34" x1="1000.87" y1="709.67" x2="909.53" y2="709.67"/><line class="cls-35" x1="1009.93" y1="713.91" x2="922.98" y2="713.91"/><line class="cls-35" x1="1005.1" y1="718.29" x2="910.13" y2="718.29"/><line class="cls-35" x1="1009.93" y1="721.31" x2="949.26" y2="721.31"/><polygon class="cls-2" points="877.02 674.15 892 690.17 905.5 713.91 1017.67 713.91 1017.67 728.86 905.69 728.86 877.02 674.15"/><rect class="cls-3" x="905.5" y="713.91" width="112.17" height="14.95"/><polygon class="cls-33" points="877.06 623.51 955.85 623.51 892.04 645.87 877.06 623.51"/><polygon class="cls-21" points="882.45 606.67 966.86 606.67 1012.89 651.06 1012.89 673.25 907.32 673.25 882.45 628.87 882.45 606.67"/><polygon class="cls-5" points="882.45 606.67 966.86 606.67 1012.89 651.06 907.32 651.06 882.45 606.67"/><line class="cls-32" x1="994.92" y1="641.71" x2="922.8" y2="641.71"/><line class="cls-32" x1="986.37" y1="635.81" x2="917.3" y2="635.81"/><line class="cls-32" x1="980.87" y1="629.92" x2="911.8" y2="629.92"/><line class="cls-32" x1="973.34" y1="624.02" x2="906.3" y2="624.02"/><rect class="cls-1" x="907.32" y="651.06" width="105.57" height="22.19"/><line class="cls-35" x1="1012.89" y1="655.43" x2="907.32" y2="655.43"/><line class="cls-35" x1="1000.87" y1="659.08" x2="909.53" y2="659.08"/><line class="cls-35" x1="1009.93" y1="663.32" x2="922.98" y2="663.32"/><line class="cls-35" x1="1005.1" y1="667.69" x2="910.13" y2="667.69"/><line class="cls-35" x1="1009.93" y1="670.71" x2="949.26" y2="670.71"/><polygon class="cls-2" points="877.02 623.55 892 639.57 905.5 663.32 1017.67 663.32 1017.67 678.27 905.69 678.27 877.02 623.55"/><rect class="cls-3" x="905.5" y="663.32" width="112.17" height="14.95"/><polygon class="cls-2" points="897.01 751.24 889.81 739.79 889.81 644.15 897.01 655.59 897.01 751.24"/><rect class="cls-3" x="905.5" y="663.32" width="5.16" height="105.13"/><line class="cls-34" x1="1012.89" y1="743.54" x2="1012.89" y2="754.63"/><line class="cls-34" x1="1012.89" y1="701.66" x2="1012.89" y2="711.09"/><rect class="cls-3" x="1012.51" y="663.32" width="5.16" height="105.13"/><path class="cls-2" d="M219.92,533.26c-3.21-2.65-5-5.69-5.3-9.06-.38-4.15,1.49-8.25,5.55-12.18h0a4.23,4.23,0,0,1,.93-.81,4.08,4.08,0,0,1,4.7,6.64c-2.76,2.67-3.22,4.53-3.12,5.62.17,1.81,2.11,3.46,3.7,4.52a4.05,4.05,0,0,1-4.49,6.75A23.55,23.55,0,0,1,219.92,533.26Z"/><path class="cls-3" d="M224,535.39a4,4,0,0,0,2.39-7.41c-1.59-1.06-3.53-2.71-3.7-4.52-.1-1.09.36-3,3.12-5.62a4.08,4.08,0,0,0-.06-6.4c-2.19,2.62-7.39,9.14-6.8,11.34,1.42,5.34,5.81,7.49,5.78,9.26A8,8,0,0,1,224,535.39Z"/><path class="cls-4" d="M219.92,533.26c-3.21-2.65-5-5.69-5.3-9.06-.38-4.15,1.49-8.25,5.55-12.18h0a4.23,4.23,0,0,1,.93-.81,4.08,4.08,0,0,1,4.7,6.64c-2.76,2.67-3.22,4.53-3.12,5.62.17,1.81,2.11,3.46,3.7,4.52a4.05,4.05,0,0,1-4.49,6.75A23.55,23.55,0,0,1,219.92,533.26Z"/><circle class="cls-36" cx="233.61" cy="510.87" r="4.8"/><polygon class="cls-19" points="75.13 742.61 53.24 761.24 119.06 761.24 121.44 746.43 75.13 742.61"/><path class="cls-37" d="M123.46,613.52a6.51,6.51,0,0,0-8.56,3.39h0l-6.83,15.81h-3.2V605.05a9.77,9.77,0,0,0-19.53,0v59.77H70.71a2.12,2.12,0,0,1-1.66-.82c-4.1-4.13-5.87-17.58-5.81-25.81a6.51,6.51,0,0,0-6.45-6.56h-.06a6.51,6.51,0,0,0-6.51,6.45c0,4.21.25,25.68,9.58,35.09a15.1,15.1,0,0,0,10.91,4.67H85.34v33.71a9.77,9.77,0,0,0,19.53.63q0-.31,0-.63v-65.8h7.48a6.52,6.52,0,0,0,6-3.93l8.53-19.74A6.52,6.52,0,0,0,123.46,613.52Z"/><path class="cls-38" d="M100.71,614.42c-.59,16.26-.88,85.67-.88,85.67l5-.67V645.75h7.48a6.52,6.52,0,0,0,6-3.93l8.53-19.74a6.51,6.51,0,0,0-1.5-7.3c-2.08-.57-5.17-.46-8,3.48a46.87,46.87,0,0,1-6,6.74L108,632.72h-3.2V605.05A9.76,9.76,0,0,0,95,595.29h0S101.29,598.16,100.71,614.42Z"/><path class="cls-38" d="M69.05,664c-4.1-4.13-5.87-17.58-5.81-25.81a6.48,6.48,0,0,0-4.72-6.3c1.18,1.87,2.64,5.75,2.73,13.5.13,12,3.64,18,8.58,19.22A3.29,3.29,0,0,1,69.05,664Z"/><path class="cls-38" d="M85.34,677.84h8.33s6.11-1.73,6.55-9.64,1.46,22.3,1.46,22.3S93.12,677.84,85.34,677.84Z"/><polygon class="cls-3" points="121.44 746.63 71.58 746.63 65.07 696.77 125.14 696.77 121.44 746.63"/><polygon class="cls-2" points="104.67 746.51 71.1 746.51 64.58 696.66 108.38 696.66 104.67 746.51"/></g></g></svg>