<svg id="Thales" xmlns="http://www.w3.org/2000/svg" width="179" height="21.211" viewBox="0 0 179 21.211">
  <path id="Path_11" data-name="Path 11" d="M569.069,15.574c0,2.883-.837,3.732-3.143,4.429a40.411,40.411,0,0,1-9.529,1.214,48.485,48.485,0,0,1-10.286-.96V16.928h18.255V12.4H551.447c-3.875,0-5.323-1.066-5.323-4.857V5.568c0-2.986.886-3.886,3.312-4.515a42.97,42.97,0,0,1,9.049-1.04A49.5,49.5,0,0,1,568.771,1V4.325H550.83V8.154h12.912c3.88,0,5.326,1.046,5.326,4.837v2.572" transform="translate(-390.069 -0.009)" fill="#1f1646"/>
  <path id="Path_12" data-name="Path 12" d="M461.07,20.254a57.461,57.461,0,0,1-11.272.957,58.14,58.14,0,0,1-11.338-.957V.987A58,58,0,0,1,449.758,0a57.3,57.3,0,0,1,11.226.983V4.416H443.906V8.273h11.118v4H443.906v4.546H461.07v3.429" transform="translate(-313.178 0)" fill="#1f1646"/>
  <path id="Path_13" data-name="Path 13" d="M364.987,21.47a46.438,46.438,0,0,1-10.1.957,47.03,47.03,0,0,1-10.166-.957V1.7h5.429v16.09h14.827V21.47" transform="translate(-246.222 -1.217)" fill="#1f1646"/>
  <path id="Path_14" data-name="Path 14" d="M249.536,21.607a25.184,25.184,0,0,1-6,.734l-8.375-16.93h-.469l-8.378,16.93a22.833,22.833,0,0,1-5.715-.734L231.224,1.723h7.569l10.744,19.884" transform="translate(-157.567 -1.231)" fill="#1f1646"/>
  <path id="Path_15" data-name="Path 15" d="M136.686,20.756a21.074,21.074,0,0,1-5.446.714V12.832H117.719V21.47a21.058,21.058,0,0,1-5.429-.714V1.22A21.057,21.057,0,0,1,117.719.5V8.844H131.24V.506a21.087,21.087,0,0,1,5.446.714Z" transform="translate(-80.205 -0.359)" fill="#1f1646"/>
  <path id="Path_16" data-name="Path 16" d="M24.487,4.474H14.938V20.761H9.549V4.474H0V1A68.408,68.408,0,0,1,12.258.006,68.329,68.329,0,0,1,24.487,1Z" transform="translate(0 -0.002)" fill="#1f1646"/>
  <path id="Path_17" data-name="Path 17" d="M569.069,15.574c0,2.883-.837,3.732-3.143,4.429a40.411,40.411,0,0,1-9.529,1.214,48.485,48.485,0,0,1-10.286-.96V16.928h18.255V12.4H551.447c-3.875,0-5.323-1.066-5.323-4.857V5.568c0-2.986.886-3.886,3.312-4.515a42.97,42.97,0,0,1,9.049-1.04A49.5,49.5,0,0,1,568.771,1V4.325H550.83V8.154h12.912c3.88,0,5.326,1.046,5.326,4.837v2.572" transform="translate(-390.069 -0.009)" fill="#6b6b6b"/>
  <path id="Path_18" data-name="Path 18" d="M461.07,20.254a57.461,57.461,0,0,1-11.272.957,58.14,58.14,0,0,1-11.338-.957V.987A58,58,0,0,1,449.758,0a57.3,57.3,0,0,1,11.226.983V4.416H443.906V8.273h11.118v4H443.906v4.546H461.07v3.429" transform="translate(-313.178 0)" fill="#6b6b6b"/>
  <path id="Path_19" data-name="Path 19" d="M364.987,21.47a46.438,46.438,0,0,1-10.1.957,47.03,47.03,0,0,1-10.166-.957V1.7h5.429v16.09h14.827V21.47" transform="translate(-246.222 -1.217)" fill="#6b6b6b"/>
  <path id="Path_20" data-name="Path 20" d="M249.536,21.607a25.184,25.184,0,0,1-6,.734l-8.375-16.93h-.469l-8.378,16.93a22.833,22.833,0,0,1-5.715-.734L231.224,1.723h7.569l10.744,19.884" transform="translate(-157.567 -1.231)" fill="#6b6b6b"/>
  <path id="Path_21" data-name="Path 21" d="M265.485,44.819a3.537,3.537,0,1,1-3.549-3.526h0a3.546,3.546,0,0,1,3.546,3.526" transform="translate(-184.574 -29.494)" fill="#918d92"/>
  <path id="Path_22" data-name="Path 22" d="M136.686,20.756a21.074,21.074,0,0,1-5.446.714V12.832H117.719V21.47a21.058,21.058,0,0,1-5.429-.714V1.22A21.057,21.057,0,0,1,117.719.5V8.844H131.24V.506a21.087,21.087,0,0,1,5.446.714Z" transform="translate(-80.205 -0.359)" fill="#6b6b6b"/>
  <path id="Path_23" data-name="Path 23" d="M24.487,4.474H14.938V20.761H9.549V4.474H0V1A68.408,68.408,0,0,1,12.258.006,68.329,68.329,0,0,1,24.487,1Z" transform="translate(0 -0.002)" fill="#6b6b6b"/>
</svg>
