<svg id="amii" xmlns="http://www.w3.org/2000/svg" xmlns:xlink="http://www.w3.org/1999/xlink" width="236.945" height="60" viewBox="0 0 236.945 60">
  <defs>
    <clipPath id="clip-path">
      <rect id="Rectangle_44" data-name="Rectangle 44" width="76.945" height="59.552" fill="none"/>
    </clipPath>
  </defs>
  <g id="Group_61" data-name="Group 61" transform="translate(0 0.448)" clip-path="url(#clip-path)">
    <path id="Path_211" data-name="Path 211" d="M10.565,342.53c-4.669,0-7.48-3.144-7.48-7.813s2.811-7.9,7.48-7.9,7.527,3.24,7.527,7.9-2.859,7.813-7.527,7.813m12.232-.179c-1.191-.024-1.525-.953-1.525-2.573V325.748c0-.858-.191-1.1-1.1-1.1h-.81c-.858,0-1.1.238-1.1,1.1v1.346a10.643,10.643,0,0,0-7.706-2.894C4.1,324.2,0,328.535,0,334.717s4.1,10.422,10.565,10.422a10.584,10.584,0,0,0,7.849-3.025c.345,1.989,1.382,2.847,3.7,2.847a1.379,1.379,0,0,0,1.334-1.62c-.036-.607-.357-.977-.655-.989" transform="translate(0 -285.586)" fill="#767676"/>
    <path id="Path_212" data-name="Path 212" d="M257.195,344.166c0,.858-.238,1.1-1.1,1.1h-.858c-.858,0-1.1-.238-1.1-1.1V333.173c0-4.383-2.43-5.765-4.812-5.765-2.334,0-4.859,1.382-4.859,5.765v10.993c0,.858-.238,1.1-1.1,1.1h-.81c-.905,0-1.1-.238-1.1-1.1V333.173c0-4.383-2.477-5.765-4.859-5.765-2.334,0-4.812,1.382-4.812,5.765v10.993c0,.858-.191,1.1-1.1,1.1h-.81c-.905,0-1.1-.238-1.1-1.1v-10.85c0-6.706,3.907-8.516,7.516-8.516a6.635,6.635,0,0,1,6.658,4.288c1.191-3.1,3.811-4.288,6.658-4.288,3.621,0,7.515,1.81,7.515,8.516v10.85Z" transform="translate(-201.549 -286.115)" fill="#767676"/>
    <path id="Path_213" data-name="Path 213" d="M520.5,343.838V329.8c0-.858-.191-1.1-1.1-1.1h-.81c-.858,0-1.1.238-1.1,1.1v14.376c0,3.43.869,4.859,3.859,4.859a1.379,1.379,0,0,0,1.334-1.62c-.048-.619-.357-.989-.667-.989-1.191-.036-1.525-.965-1.525-2.585" transform="translate(-455.863 -289.55)" fill="#767676"/>
    <path id="Path_214" data-name="Path 214" d="M605.4,343.838V329.8c0-.858-.191-1.1-1.1-1.1h-.81c-.858,0-1.1.238-1.1,1.1v14.376c0,3.43.869,4.859,3.859,4.859a1.379,1.379,0,0,0,1.334-1.62c-.048-.619-.357-.989-.667-.989-1.191-.036-1.525-.965-1.525-2.585" transform="translate(-530.651 -289.55)" fill="#767676"/>
    <path id="Path_215" data-name="Path 215" d="M168.642,107.249c-5.431-.071-8.456-2.513-9-7.253-.441-3.847.238-6.42,2.025-7.67a6.247,6.247,0,0,1,3.633-.941c5.919,0,15.555,4.788,24.3,9.171-7.6,4.228-15.472,6.765-20.95,6.694m21.546-7.039c-.036-.012-.06-.036-.1-.048-11.648-5.824-23.69-11.851-28.764-8.3-2,1.394-2.739,4.085-2.263,8.206.572,5,3.883,7.682,9.564,7.766h.262c6.289,0,14.352-2.99,21.332-6.956.131.06.107-.75-.036-.667" transform="translate(-139.998 -79.986)" fill="#a4a4a4"/>
    <path id="Path_216" data-name="Path 216" d="M428.391,12.77a2.8,2.8,0,0,1,2.192-.81,8.859,8.859,0,0,1,2.239.345c2.549.7,3.7,2,3.442,3.859-.322,2.263-2.716,5.288-6.515,8.409-1.822-5.145-3.013-9.957-1.358-11.8m1.084,12.768c.619,1.679,1.286,3.394,1.965,5.074.179-.083.345-.167.524-.238-.679-1.7-1.382-3.478-2.013-5.217,3.883-3.18,6.527-6.4,6.884-8.9.214-1.513-.286-3.514-3.859-4.5-2.37-.655-4.061-.441-5.014.631-1.882,2.1-.655,7.111,1.31,12.589a61.034,61.034,0,0,1-6.694,4.6c-.393.238-.786.465-1.179.691l.643.322a64.185,64.185,0,0,0,7.432-5.05" transform="translate(-371.209 -10.031)" fill="#a4a4a4"/>
    <path id="Path_217" data-name="Path 217" d="M510.57,181.4c-.083-.226-.167-.465-.25-.7-.512-1.382-1.143-2.99-1.882-4.848-.071-.179-.143-.357-.214-.548-.179.071-.357.155-.524.238.071.179.143.345.214.524.6,1.477,1.179,2.954,1.7,4.335.1.238.179.488.262.727.953,2.62,1.525,4.693,1.036,5.229-.119.131-.345.143-.679.048l-.155.56a1.784,1.784,0,0,0,.536.083.952.952,0,0,0,.738-.3c.607-.7.238-2.477-.786-5.348" transform="translate(-447.231 -154.421)" fill="#a4a4a4"/>
    <path id="Path_218" data-name="Path 218" d="M440.125,158.771a15.955,15.955,0,0,0-7.9,1.358c-.179.083-.357.155-.524.238a13.481,13.481,0,0,0-3.871,2.692c-1.787-.858-3.645-1.787-5.526-2.727-.2.119-.4.226-.607.345,1.941.977,3.871,1.929,5.729,2.835a4.753,4.753,0,0,0-1.072,2.072c-.381,1.941.691,4.681,7.944,6.753l.155-.56c-5.324-1.525-8-3.68-7.539-6.086a4.4,4.4,0,0,1,1.012-1.929c2.168,1.036,4.24,1.977,6.158,2.739-.083-.238-.179-.476-.262-.727-1.715-.7-3.561-1.536-5.479-2.465a12.824,12.824,0,0,1,3.573-2.394c.179-.083.345-.155.524-.238a16.02,16.02,0,0,1,7.611-1.346c2.334.25,5.1,1.358,5.026,5.241a3.1,3.1,0,0,1-1.3,2.847c-1.739,1.048-5.062.3-9.231-1.358.1.238.179.476.25.7,4.121,1.572,7.444,2.251,9.278,1.143a3.667,3.667,0,0,0,1.572-3.323c.083-3.359-1.882-5.419-5.526-5.812" transform="translate(-371.474 -139.798)" fill="#a4a4a4"/>
    <path id="Path_219" data-name="Path 219" d="M596.4,217.572a2,2,0,0,1,2.072-2.072,1.965,1.965,0,0,1,1.965,2.072,1.937,1.937,0,0,1-1.965,2.072,1.963,1.963,0,0,1-2.072-2.072" transform="translate(-525.366 -189.833)" fill="#767676"/>
    <path id="Path_220" data-name="Path 220" d="M497.9,2.072A2,2,0,0,1,499.972,0a1.965,1.965,0,0,1,1.965,2.072,1.937,1.937,0,0,1-1.965,2.072A1.969,1.969,0,0,1,497.9,2.072" transform="translate(-438.598)" fill="#767676"/>
    <path id="Path_221" data-name="Path 221" d="M406.1,158.272a2,2,0,0,1,2.072-2.072,1.965,1.965,0,0,1,1.965,2.072,1.937,1.937,0,0,1-1.965,2.072,1.982,1.982,0,0,1-2.072-2.072" transform="translate(-357.732 -137.596)" fill="#767676"/>
    <path id="Path_222" data-name="Path 222" d="M515.3,251.972a2,2,0,0,1,2.072-2.072,1.965,1.965,0,0,1,1.965,2.072,1.937,1.937,0,0,1-1.965,2.072,1.963,1.963,0,0,1-2.072-2.072" transform="translate(-453.925 -220.136)" fill="#767676"/>
    <path id="Path_223" data-name="Path 223" d="M163.8,190.772a2,2,0,0,1,2.072-2.072,1.965,1.965,0,0,1,1.965,2.072,1.937,1.937,0,0,1-1.965,2.072,1.975,1.975,0,0,1-2.072-2.072" transform="translate(-144.291 -166.225)" fill="#767676"/>
  </g>
  <text id="Alberta_Machine_Intelligence_Institute" data-name="Alberta Machine Intelligence Institute" transform="translate(86.945)" fill="#6e6a75" font-size="18" font-family="ObjectSans-Medium, Object Sans" font-weight="500"><tspan x="0" y="19">Alberta Machine </tspan><tspan x="0" y="37">Intelligence </tspan><tspan x="0" y="55">Institute</tspan></text>
</svg>
