<svg id="CRL" xmlns="http://www.w3.org/2000/svg" width="140.333" height="60" viewBox="0 0 140.333 60">
  <text id="Chandar_Research_Lab_Mila_" data-name="Chandar Research
Lab (Mila)" transform="translate(52.333)" fill="#6e6a75" font-size="18" font-family="ObjectSans-Medium, Object Sans" font-weight="500"><tspan x="0" y="19">Chandar </tspan><tspan x="0" y="37">Research</tspan><tspan x="0" y="55">Lab (Mila)</tspan></text>
  <g id="MILA" transform="translate(0 8.617)">
    <g id="Group_15" data-name="Group 15">
      <path id="Path_24" data-name="Path 24" d="M459.49,586.007a1.215,1.215,0,1,1-1.215-1.215,1.215,1.215,0,0,1,1.215,1.215" transform="translate(-426.067 -545.136)" fill="#6b6b6b"/>
      <path id="Path_25" data-name="Path 25" d="M407.364,488.6a.271.271,0,0,1-.235-.136l-3.519-6.1a.271.271,0,0,1,.47-.271l3.519,6.1a.271.271,0,0,1-.235.407" transform="translate(-376.206 -449.281)" fill="#6b6b6b"/>
      <path id="Path_26" data-name="Path 26" d="M490.267,345.018a.271.271,0,0,1-.235-.136l-3.519-6.1a.271.271,0,0,1,.47-.271l3.519,6.1a.271.271,0,0,1-.235.407" transform="translate(-453.488 -315.434)" fill="#6b6b6b"/>
      <path id="Path_27" data-name="Path 27" d="M569.647,345.018a.271.271,0,0,1-.235-.407l3.519-6.1a.271.271,0,0,1,.47.271l-3.519,6.1a.271.271,0,0,1-.235.136" transform="translate(-530.765 -315.434)" fill="#6b6b6b"/>
      <path id="Path_28" data-name="Path 28" d="M403.846,345.018a.271.271,0,0,1-.235-.407l3.519-6.1a.271.271,0,0,1,.47.271l-3.519,6.1a.271.271,0,0,1-.235.136" transform="translate(-376.208 -315.434)" fill="#6b6b6b"/>
      <path id="Path_29" data-name="Path 29" d="M407.337,201.382a.271.271,0,0,1-.235-.136l-3.491-6.045a.271.271,0,1,1,.47-.271l3.491,6.045a.271.271,0,0,1-.235.407" transform="translate(-376.208 -181.585)" fill="#6b6b6b"/>
      <path id="Path_30" data-name="Path 30" d="M486.746,201.431a.271.271,0,0,1-.235-.407l3.519-6.1a.271.271,0,0,1,.47.271l-3.519,6.1a.271.271,0,0,1-.235.136" transform="translate(-453.486 -181.584)" fill="#6b6b6b"/>
      <path id="Path_31" data-name="Path 31" d="M341.281,199.043a.271.271,0,0,1-.235-.407l2.14-3.707a.271.271,0,0,1,.47.271l-2.14,3.707a.271.271,0,0,1-.235.136" transform="translate(-317.886 -181.585)" fill="#6b6b6b"/>
      <path id="Path_32" data-name="Path 32" d="M573.166,201.432a.271.271,0,0,1-.235-.136l-3.519-6.1a.271.271,0,1,1,.47-.271l3.519,6.1a.271.271,0,0,1-.235.407" transform="translate(-530.765 -181.585)" fill="#6b6b6b"/>
      <path id="Path_33" data-name="Path 33" d="M357,484.369a.271.271,0,0,1-.235-.407l1.074-1.86a.271.271,0,0,1,.47.271l-1.074,1.86a.271.271,0,0,1-.235.136" transform="translate(-332.543 -449.283)" fill="#6b6b6b"/>
      <path id="Path_34" data-name="Path 34" d="M490.267,57.845a.271.271,0,0,1-.235-.136l-3.519-6.1a.271.271,0,1,1,.47-.271l3.519,6.1a.271.271,0,0,1-.235.407" transform="translate(-453.488 -47.734)" fill="#6b6b6b"/>
      <path id="Path_35" data-name="Path 35" d="M403.846,57.844a.271.271,0,0,1-.235-.407l3.519-6.1a.271.271,0,0,1,.47.271l-3.519,6.1a.271.271,0,0,1-.235.136" transform="translate(-376.208 -47.734)" fill="#6b6b6b"/>
      <path id="Path_36" data-name="Path 36" d="M426.383,168.487h-7.039a.271.271,0,1,1,0-.542h7.039a.271.271,0,1,1,0,.542" transform="translate(-390.655 -156.556)" fill="#6b6b6b"/>
      <path id="Path_37" data-name="Path 37" d="M426.384,455.66h-7.039a.271.271,0,0,1,0-.542h7.039a.271.271,0,0,1,0,.542" transform="translate(-390.656 -424.256)" fill="#6b6b6b"/>
      <path id="Path_38" data-name="Path 38" d="M509.906,312.073h-6.994a.271.271,0,0,1,0-.542h6.994a.271.271,0,0,1,0,.542" transform="translate(-468.556 -290.406)" fill="#6b6b6b"/>
      <path id="Path_39" data-name="Path 39" d="M383.538,312.073h-4.125a.271.271,0,0,1,0-.542h4.125a.271.271,0,0,1,0,.542" transform="translate(-353.431 -290.406)" fill="#6b6b6b"/>
      <path id="Path_40" data-name="Path 40" d="M305.291,455.66H301.5a.271.271,0,1,1,0-.542h3.787a.271.271,0,0,1,0,.542" transform="translate(-280.806 -424.256)" fill="#6b6b6b"/>
      <path id="Path_41" data-name="Path 41" d="M389.424,24.9h-3.7a.271.271,0,0,1,0-.542h3.7a.271.271,0,0,1,0,.542" transform="translate(-359.318 -22.706)" fill="#6b6b6b"/>
      <path id="Path_42" data-name="Path 42" d="M343.313,377.66a.271.271,0,0,1-.235-.136L340.93,373.8a.271.271,0,0,1,.47-.271l2.148,3.721a.271.271,0,0,1-.235.407" transform="translate(-317.777 -348.076)" fill="#6b6b6b"/>
      <path id="Path_43" data-name="Path 43" d="M376.591,442.42a1.215,1.215,0,1,1-1.215-1.215,1.215,1.215,0,0,1,1.215,1.215" transform="translate(-348.789 -411.286)" fill="#6b6b6b"/>
      <path id="Path_44" data-name="Path 44" d="M542.39,442.42a1.215,1.215,0,1,1-1.215-1.215,1.215,1.215,0,0,1,1.215,1.215" transform="translate(-503.344 -411.286)" fill="#6b6b6b"/>
      <path id="Path_45" data-name="Path 45" d="M625.289,298.833a1.215,1.215,0,1,1-1.215-1.215,1.215,1.215,0,0,1,1.215,1.215" transform="translate(-580.623 -277.436)" fill="#6b6b6b"/>
      <path id="Path_46" data-name="Path 46" d="M459.49,298.833a1.215,1.215,0,1,1-1.215-1.215,1.215,1.215,0,0,1,1.215,1.215" transform="translate(-426.067 -277.436)" fill="#6b6b6b"/>
      <path id="Path_47" data-name="Path 47" d="M542.39,155.247a1.215,1.215,0,1,1-1.215-1.215,1.215,1.215,0,0,1,1.215,1.215" transform="translate(-503.344 -143.587)" fill="#6b6b6b"/>
      <path id="Path_48" data-name="Path 48" d="M376.591,155.247a1.215,1.215,0,1,1-1.215-1.215,1.215,1.215,0,0,1,1.215,1.215" transform="translate(-348.789 -143.587)" fill="#6b6b6b"/>
      <path id="Path_49" data-name="Path 49" d="M459.49,11.66a1.215,1.215,0,1,1-1.215-1.215,1.215,1.215,0,0,1,1.215,1.215" transform="translate(-426.067 -9.737)" fill="#6b6b6b"/>
      <path id="Path_50" data-name="Path 50" d="M263.934,263.545a3.767,3.767,0,1,1-3.767-3.767,3.767,3.767,0,0,1,3.767,3.767" transform="translate(-239.012 -242.162)" fill="#6b6b6b"/>
      <path id="Path_51" data-name="Path 51" d="M277.659,523.321a3.767,3.767,0,1,1-3.767-3.767,3.767,3.767,0,0,1,3.767,3.767" transform="translate(-251.806 -484.322)" fill="#6b6b6b"/>
      <path id="Path_52" data-name="Path 52" d="M198.214,127.767A3.767,3.767,0,1,1,194.446,124a3.767,3.767,0,0,1,3.767,3.767" transform="translate(-177.749 -115.591)" fill="#6b6b6b"/>
      <path id="Path_53" data-name="Path 53" d="M277.658,3.767A3.767,3.767,0,1,1,273.89,0a3.767,3.767,0,0,1,3.767,3.767" transform="translate(-251.806)" fill="#6b6b6b"/>
      <path id="Path_54" data-name="Path 54" d="M141.474,13.155a3.084,3.084,0,1,1-3.084-3.084,3.084,3.084,0,0,1,3.084,3.084" transform="translate(-126.13 -9.388)" fill="#6b6b6b"/>
      <path id="Path_55" data-name="Path 55" d="M31.016,112.281a5.169,5.169,0,1,1-5.169-5.169,5.169,5.169,0,0,1,5.169,5.169" transform="translate(-19.277 -99.849)" fill="#6b6b6b"/>
      <path id="Path_56" data-name="Path 56" d="M31.016,376.152a5.169,5.169,0,1,1-5.169-5.169,5.169,5.169,0,0,1,5.169,5.169" transform="translate(-19.277 -345.826)" fill="#6b6b6b"/>
      <path id="Path_57" data-name="Path 57" d="M130.959,262.269a3.874,3.874,0,1,1-3.874-3.874,3.874,3.874,0,0,1,3.874,3.874" transform="translate(-114.855 -240.873)" fill="#6b6b6b"/>
      <path id="Path_58" data-name="Path 58" d="M6.12,273.468a3.06,3.06,0,1,1-3.06-3.06,3.06,3.06,0,0,1,3.06,3.06" transform="translate(0 -252.071)" fill="#6b6b6b"/>
      <path id="Path_59" data-name="Path 59" d="M208.009,408.468a3.06,3.06,0,1,1-3.06-3.06,3.06,3.06,0,0,1,3.06,3.06" transform="translate(-188.199 -377.917)" fill="#6b6b6b"/>
      <path id="Path_60" data-name="Path 60" d="M141.342,533.047a3.06,3.06,0,1,1-3.06-3.06,3.06,3.06,0,0,1,3.06,3.06" transform="translate(-126.052 -494.048)" fill="#6b6b6b"/>
      <path id="Path_61" data-name="Path 61" d="M486.747,488.6a.271.271,0,0,1-.235-.407l3.519-6.1a.271.271,0,0,1,.47.271l-3.519,6.1a.271.271,0,0,1-.235.136" transform="translate(-453.487 -449.278)" fill="#6b6b6b"/>
      <path id="Path_62" data-name="Path 62" d="M389.423,599.247h-3.7a.271.271,0,1,1,0-.542h3.7a.271.271,0,1,1,0,.542" transform="translate(-359.317 -558.106)" fill="#6b6b6b"/>
      <path id="Path_63" data-name="Path 63" d="M314.82,168.487h-3.094a.271.271,0,0,1,0-.542h3.094a.271.271,0,0,1,0,.542" transform="translate(-290.335 -156.556)" fill="#6b6b6b"/>
      <path id="Path_64" data-name="Path 64" d="M358.132,116.155a.271.271,0,0,1-.235-.136l-1.07-1.854a.271.271,0,1,1,.47-.271l1.07,1.854a.271.271,0,0,1-.235.407" transform="translate(-332.596 -106.044)" fill="#6b6b6b"/>
    </g>
  </g>
</svg>
