<svg id="University_of_Alberta" data-name="University of Alberta" xmlns="http://www.w3.org/2000/svg" xmlns:xlink="http://www.w3.org/1999/xlink" width="254.446" height="66.333" viewBox="0 0 254.446 66.333">
  <defs>
    <clipPath id="clip-path">
      <rect id="Rectangle_24" data-name="Rectangle 24" width="48.891" height="64.528" fill="none"/>
    </clipPath>
  </defs>
  <g id="Intelligent_Robot_Learning_Laboratory" data-name="Intelligent Robot Learning Laboratory">
    <g id="Group_17" data-name="Group 17" clip-path="url(#clip-path)">
      <path id="Path_111" data-name="Path 111" d="M73.844,58.177v23.8s.09,7.466-15.854,16.4c0,0-15.945-8.182-15.945-16.4V79.9h8.492V71.412h5.375v-6.5h8.266V61.656h4.788V57.048Z" transform="translate(-24.953 -33.857)" fill="#6a6a6a"/>
      <rect id="Rectangle_6" data-name="Rectangle 6" width="7.182" height="7.137" transform="translate(15.466 37.013)" fill="#6a6a6a"/>
      <rect id="Rectangle_7" data-name="Rectangle 7" width="5.782" height="5.736" transform="translate(22.287 28.973)" fill="#6a6a6a"/>
      <rect id="Rectangle_8" data-name="Rectangle 8" width="5.556" height="5.465" transform="translate(30.734 22.469)" fill="#6a6a6a"/>
      <rect id="Rectangle_9" data-name="Rectangle 9" width="4.336" height="4.246" transform="translate(38.141 20.346)" fill="#6a6a6a"/>
      <rect id="Rectangle_10" data-name="Rectangle 10" width="3.252" height="3.207" transform="translate(32.63 15.377)" fill="#6a6a6a"/>
      <rect id="Rectangle_11" data-name="Rectangle 11" width="5.149" height="5.149" transform="translate(23.371 20.752)" fill="#a4a4a4"/>
      <rect id="Rectangle_12" data-name="Rectangle 12" width="3.478" height="3.433" transform="translate(26.126 15.377)" fill="#a4a4a4"/>
      <rect id="Rectangle_13" data-name="Rectangle 13" width="5.285" height="5.24" transform="translate(14.382 28.386)" fill="#a4a4a4"/>
      <rect id="Rectangle_14" data-name="Rectangle 14" width="4.698" height="4.788" transform="translate(15.466 20.029)" fill="#a4a4a4"/>
      <rect id="Rectangle_15" data-name="Rectangle 15" width="5.285" height="5.285" transform="translate(17.815 11.809)" fill="#a4a4a4"/>
      <rect id="Rectangle_16" data-name="Rectangle 16" width="2.236" height="2.213" transform="translate(19.057 7.247)" fill="#a4a4a4"/>
      <rect id="Rectangle_17" data-name="Rectangle 17" width="3.975" height="3.93" transform="translate(8.781 24.817)" fill="#a4a4a4"/>
      <rect id="Rectangle_18" data-name="Rectangle 18" width="2.981" height="3.026" transform="translate(8.781 18.223)" fill="#a4a4a4"/>
      <rect id="Rectangle_19" data-name="Rectangle 19" width="2.123" height="2.168" transform="translate(11.401 11.809)" fill="#ccc"/>
      <rect id="Rectangle_20" data-name="Rectangle 20" width="3.885" height="3.93" transform="translate(11.085 5.078)" fill="#ccc"/>
      <rect id="Rectangle_21" data-name="Rectangle 21" width="4.065" height="4.02" transform="translate(4.084 11.041)" fill="#ccc"/>
      <rect id="Rectangle_22" data-name="Rectangle 22" width="3.207" height="3.275" transform="translate(4.445 4.853)" fill="#ccc"/>
      <rect id="Rectangle_23" data-name="Rectangle 23" width="2.164" height="2.155" fill="#ccc"/>
    </g>
    <text id="The_intelligent_robot_learning_laboratory_University_of_Alberta_" data-name="The intelligent  robot learning laboratory (University of Alberta)" transform="translate(59.446 6.333)" fill="#6e6a75" font-size="18" font-family="ObjectSans-Medium, Object Sans" font-weight="500"><tspan x="0" y="19" xml:space="preserve">The intelligent  robot </tspan><tspan x="0" y="37">learning laboratory </tspan><tspan x="0" y="55">(University of Alberta)</tspan></text>
  </g>
</svg>
