<?xml version="1.0" encoding="utf-8"?><svg xmlns="http://www.w3.org/2000/svg" viewBox="0 0 274.04 57.57"><defs><style>.cls-1{fill:#fff;}</style></defs><title>Cogment_Logo_White</title><g id="Layer_2" data-name="Layer 2"><g id="Layer_1-2" data-name="Layer 1"><path class="cls-1" d="M257.48,31.88c0,.42,0,.82.08,1.22l9.17-2,.06-14.2H274V10.25h-7.25V0h-7.25l-1.75,10.25H253v6.63h4.5Z"/><path class="cls-1" d="M13.29,18a7.62,7.62,0,0,1,4.15-1.15,7.93,7.93,0,0,1,4.88,1.59,7.83,7.83,0,0,1,2.87,4.28l8.57-1.18A13.1,13.1,0,0,0,31,15.06a14.56,14.56,0,0,0-5.79-4.31,19.85,19.85,0,0,0-7.84-1.5,19,19,0,0,0-9.07,2.1,14.91,14.91,0,0,0-6.12,6A17.7,17.7,0,0,0,0,26.19,16.79,16.79,0,0,0,2.19,35a15.82,15.82,0,0,0,6.22,6,18.45,18.45,0,0,0,9,2.15,19.3,19.3,0,0,0,7.81-1.53,15,15,0,0,0,5.75-4.31,13.4,13.4,0,0,0,2.82-6.6l-8.57-1.06a7.56,7.56,0,0,1-2.84,4.25,7.91,7.91,0,0,1-4.91,1.63,7.69,7.69,0,0,1-4.19-1.19,8.07,8.07,0,0,1-2.93-3.31,10.75,10.75,0,0,1-1.07-4.88,10.54,10.54,0,0,1,1.1-4.84A8.15,8.15,0,0,1,13.29,18Z"/><path class="cls-1" d="M226.41,39.93V24.13a7,7,0,0,1,.91-3.53,6.62,6.62,0,0,1,5.84-3.41A5.58,5.58,0,0,1,237.54,19a7.29,7.29,0,0,1,1.69,4.79v13.3l9.25-2V22.5A14.64,14.64,0,0,0,247,15.75a11.63,11.63,0,0,0-10.6-6.44,10,10,0,0,0-5.22,1.35,12.82,12.82,0,0,0-4.09,4h-.63V10.25h-9.19V42Z"/><path class="cls-1" d="M165.59,10.94a11.69,11.69,0,0,0-6.25-1.69,11,11,0,0,0-6,1.63,12.12,12.12,0,0,0-4.16,4.37h-.56a9.73,9.73,0,0,0-4-4.37,11.14,11.14,0,0,0-5.85-1.63,10,10,0,0,0-5.43,1.53,10.12,10.12,0,0,0-3.75,4.16h-.75V10.25h-9.13V42.19H129V23.94a7.14,7.14,0,0,1,1.66-5A5.48,5.48,0,0,1,135,17.13,5.36,5.36,0,0,1,139.24,19a7.36,7.36,0,0,1,1.59,5V42.19h9.26V23.94A7.05,7.05,0,0,1,151.81,19a5.88,5.88,0,0,1,8.75.1,7.15,7.15,0,0,1,1.65,4.81V42.19h9.25V22.38a14.36,14.36,0,0,0-1.56-6.78A11.76,11.76,0,0,0,165.59,10.94Z"/><path class="cls-1" d="M185.19,41a19.09,19.09,0,0,0,9.22,2.18,21.54,21.54,0,0,0,7-1.12A15.47,15.47,0,0,0,207,38.85a12.71,12.71,0,0,0,3.35-4.91l-7.94-2a7.92,7.92,0,0,1-3.1,3.19,9.35,9.35,0,0,1-8.59.28,7.73,7.73,0,0,1-3-2.59,9.73,9.73,0,0,1-1.53-3.94h25.19a11.41,11.41,0,0,0,.06-1.31v-1.5a17.41,17.41,0,0,0-2.16-8.75,15,15,0,0,0-6.06-5.94,18.41,18.41,0,0,0-9-2.13,19.54,19.54,0,0,0-9.16,2.1,15.2,15.2,0,0,0-6.25,5.87,16.9,16.9,0,0,0-2.22,8.72,17.62,17.62,0,0,0,2.25,9A15.78,15.78,0,0,0,185.19,41Zm2.4-21.6a7.4,7.4,0,0,1,2.72-2.47,8.52,8.52,0,0,1,7.56,0,7.47,7.47,0,0,1,2.79,2.53,9.93,9.93,0,0,1,1.43,3.63H186.15A9.58,9.58,0,0,1,187.59,19.41Z"/><path class="cls-1" d="M65,11.35a19.58,19.58,0,0,0-9.28-2.1,20,20,0,0,0-9.35,2.1,14.89,14.89,0,0,0-6.22,5.9,17.63,17.63,0,0,0-2.19,8.94,17.65,17.65,0,0,0,2.22,8.94,15.16,15.16,0,0,0,6.22,6,19.77,19.77,0,0,0,9.32,2.09A19.75,19.75,0,0,0,65,41.1a15.09,15.09,0,0,0,6.22-5.94,17.6,17.6,0,0,0,2.22-9,17.26,17.26,0,0,0-2.25-8.94A15.37,15.37,0,0,0,65,11.35ZM63.1,30.88a8.32,8.32,0,0,1-3,3.25,8.69,8.69,0,0,1-8.78,0,8.4,8.4,0,0,1-3-3.25,9.86,9.86,0,0,1-1.09-4.69,9.86,9.86,0,0,1,1.09-4.69,8.25,8.25,0,0,1,3-3.22,9,9,0,0,1,8.78,0,8.18,8.18,0,0,1,3,3.22,9.87,9.87,0,0,1,1.1,4.69A9.87,9.87,0,0,1,63.1,30.88Z"/><path class="cls-1" d="M103.83,14.25h-.56a14.58,14.58,0,0,0-4.6-3.69,13.4,13.4,0,0,0-6-1.25,14.82,14.82,0,0,0-7.81,2.07,13.88,13.88,0,0,0-5.35,5.9,19.33,19.33,0,0,0-1.84,8.91,18.07,18.07,0,0,0,1.87,8.63,14.12,14.12,0,0,0,5.35,5.78,15.06,15.06,0,0,0,7.84,2,13.27,13.27,0,0,0,5.63-1.15,13.44,13.44,0,0,0,4.5-3.47h.69v3.56a10,10,0,0,1-1.1,4.56,7.24,7.24,0,0,1-2.93,3,9,9,0,0,1-4.47,1.07,9.21,9.21,0,0,1-3.63-.69,7.76,7.76,0,0,1-2.75-1.94,8.89,8.89,0,0,1-1.75-3l-8.87,1.75a11.92,11.92,0,0,0,3,6.06,15,15,0,0,0,6,3.85,24,24,0,0,0,8.28,1.34,21,21,0,0,0,9.25-1.9,14.07,14.07,0,0,0,6.06-5.44,16,16,0,0,0,2.13-8.41V10.25h-8.94Zm-1.06,16.5a8.28,8.28,0,0,1-3,3.22,8.7,8.7,0,0,1-8.68,0,8.38,8.38,0,0,1-3-3.18,9.35,9.35,0,0,1-1.12-4.6A9.69,9.69,0,0,1,88,21.53a8.38,8.38,0,0,1,7.41-4.4,8,8,0,0,1,4.31,1.19,8.5,8.5,0,0,1,3.07,3.25,9.46,9.46,0,0,1,1.12,4.62A9.33,9.33,0,0,1,102.77,30.75Z"/></g></g></svg>