<svg xmlns="http://www.w3.org/2000/svg" viewBox="0 0 253.19 53.76">
  <g>
    <g class="main" fill="black">
      <path d="M179.82,40c7.19,0,12.93-3.25,14.78-8.58l-7.3-1.86a7.76,7.76,0,0,1-7.13,4.06c-4.23,0-7.19-2.73-7.89-6.9h23.31a18.22,18.22,0,0,0,.12-2.61c0-9.33-6.5-15.65-16-15.65S163.41,14.73,163.41,24C163.41,33.57,170.2,40,179.82,40Zm-.29-25.17A7.34,7.34,0,0,1,187,21.4H172.22C172.92,17.45,175.65,14.84,179.53,14.84Z"/>
      <path d="M209.57,36.15V22.38a6.29,6.29,0,0,1,6.26-6.49c3.48,0,5.56,2.55,5.56,6.2V33.7L230,31.92v-11c0-7.13-4.47-12.35-11.2-12.35-3.59,0-6.43,1.68-8.63,5.05h-.58V9.39H201V37.93Z"/>
      <polygon points="237.85 30.28 246.4 28.5 246.4 15.65 253.19 15.65 253.19 9.39 246.4 9.39 246.46 0 239.74 0 238.05 9.39 233.65 9.39 233.65 15.65 237.82 15.65 237.85 30.28"/>
      <path d="M95.8,13.16h-.58a11.72,11.72,0,0,0-9.68-4.64c-8.24,0-14,6.15-14,15.72,0,9.16,5.79,15.24,14,15.24A11.84,11.84,0,0,0,95,35.19h.58V38.5c0,4.87-3.07,8-7.83,8a7.53,7.53,0,0,1-7.54-5.22l-8.29,1.63C73.36,49.57,79.33,53.34,88,53.34c9.92,0,16.18-5.45,16.18-14.61V9.39H95.8ZM88,32.47c-4.58,0-7.88-3.48-7.88-8.23s3.3-8.41,7.88-8.41,7.83,3.54,7.83,8.41S92.61,32.47,88,32.47Z"/>
      <path d="M119.23,22.15c0-3.83,2.2-6.32,5.56-6.32s5.34,2.49,5.34,6.32V39.08h8.64V22.15c0-3.71,2.32-6.32,5.68-6.32S150,18.55,150,22.15V39.08h8.59V20.7c0-7.19-4.7-12.18-11.25-12.18A10.21,10.21,0,0,0,138,14.09h-.58a10.11,10.11,0,0,0-9.1-5.62,9.63,9.63,0,0,0-8.58,5.33h-.58V9.39h-8.52V39.08h8.58Z"/>
      <path d="M51.43,8.47C41.51,8.47,35,14.67,35,24.24S41.51,40,51.43,40,67.9,33.86,67.9,24.24,61.29,8.47,51.43,8.47Zm0,24.23c-4.64,0-7.89-3.54-7.89-8.46s3.25-8.41,7.89-8.41,7.83,3.48,7.83,8.41S56,32.7,51.43,32.7Z"/>
      <path d="M16.18,32.93c-4.35,0-7.6-3.59-7.6-8.69s3.31-8.7,7.65-8.7a7.27,7.27,0,0,1,7.08,5.51l8-1.05c-1-7-7.13-11.53-15.19-11.53C6.55,8.47,0,14.79,0,24.24S6.67,40,16.12,40c7.94,0,14.15-4.53,15.25-11.54l-8.06-1A7.29,7.29,0,0,1,16.18,32.93Z"/>
    </g>
    <g class="subscript" fill="#231f20">
      <path d="M110.75,43.65h2.67l2.12,7.45h.17l2.14-7.45h2.66l-3.05,9.77H113.8Z"/>
      <path d="M146.34,53.05a4.55,4.55,0,0,1-1.72-1.86,5.91,5.91,0,0,1-.62-2.74,5.59,5.59,0,0,1,.61-2.67,4.36,4.36,0,0,1,1.71-1.8,4.88,4.88,0,0,1,2.51-.64,4.65,4.65,0,0,1,2.45.65,4.37,4.37,0,0,1,1.66,1.82,5.77,5.77,0,0,1,.6,2.67v.46a3.9,3.9,0,0,1,0,.4h-6.9a3.28,3.28,0,0,0,.42,1.21A2.19,2.19,0,0,0,149,51.62a2.25,2.25,0,0,0,1.25-.36,2.35,2.35,0,0,0,.84-1l2.18.61a3.86,3.86,0,0,1-.92,1.5,4.17,4.17,0,0,1-1.52,1,5.33,5.33,0,0,1-1.93.34A4.7,4.7,0,0,1,146.34,53.05ZM151,47.59a3.13,3.13,0,0,0-.4-1.11,2.11,2.11,0,0,0-.76-.78,2,2,0,0,0-1-.27,2,2,0,0,0-1,.26,2.08,2.08,0,0,0-.74.76,3,3,0,0,0-.4,1.14Z"/>
      <path d="M179,43.65h2.48V45h.19a2.39,2.39,0,0,1,.88-1.1,2.14,2.14,0,0,1,1.27-.41,3.12,3.12,0,0,1,.54,0,1.47,1.47,0,0,1,.46.17v2.56a3.68,3.68,0,0,0-.77-.26,3,3,0,0,0-.67-.09,1.61,1.61,0,0,0-1.35.7,3,3,0,0,0-.52,1.83v5H179Z"/>
      <path d="M212.83,53.32a3.23,3.23,0,0,1-1.45-1.24,3.62,3.62,0,0,1-.5-1.93h2.21a1.74,1.74,0,0,0,.58,1.26,2.11,2.11,0,0,0,1.46.48,1.94,1.94,0,0,0,1.16-.32,1,1,0,0,0,.43-.89.79.79,0,0,0-.23-.63,1.34,1.34,0,0,0-.58-.3,6.18,6.18,0,0,0-1-.18l-.18,0-.31,0a8.3,8.3,0,0,1-1.72-.39A2.5,2.5,0,0,1,211,46.57a3.14,3.14,0,0,1,.49-1.75,3,3,0,0,1,1.36-1.13,5,5,0,0,1,2-.39,5.14,5.14,0,0,1,2.1.41,3.28,3.28,0,0,1,1.44,1.14,2.87,2.87,0,0,1,.5,1.74h-2.29a1.28,1.28,0,0,0-.49-1,1.9,1.9,0,0,0-1.26-.38,1.83,1.83,0,0,0-1.1.31,1,1,0,0,0-.44.83.73.73,0,0,0,.26.61,1.42,1.42,0,0,0,.64.31,9.54,9.54,0,0,0,1.11.17l.29.06h.06l.06,0a6.94,6.94,0,0,1,1.72.37,2.93,2.93,0,0,1,1.24.9,2.61,2.61,0,0,1,.49,1.67,3,3,0,0,1-1.92,2.93,5.61,5.61,0,0,1-2.24.4A5.25,5.25,0,0,1,212.83,53.32Z"/>
      <path d="M245.75,53.05A4.62,4.62,0,0,1,244,51.19a5.91,5.91,0,0,1-.61-2.74,5.71,5.71,0,0,1,.6-2.67,4.45,4.45,0,0,1,1.72-1.8,4.85,4.85,0,0,1,2.5-.64,4.66,4.66,0,0,1,2.46.65,4.43,4.43,0,0,1,1.66,1.82,5.89,5.89,0,0,1,.59,2.67v.46a2.24,2.24,0,0,1,0,.4H246a3.28,3.28,0,0,0,.42,1.21,2.29,2.29,0,0,0,.82.79,2.18,2.18,0,0,0,1.11.28,2.22,2.22,0,0,0,1.24-.36,2.45,2.45,0,0,0,.85-1l2.17.61a3.84,3.84,0,0,1-.91,1.5,4.21,4.21,0,0,1-1.53,1,5.32,5.32,0,0,1-1.92.34A4.76,4.76,0,0,1,245.75,53.05Zm4.63-5.46a3.12,3.12,0,0,0-.39-1.11,2.19,2.19,0,0,0-.76-.78,2.07,2.07,0,0,0-1-.27,2,2,0,0,0-1,.26,2.1,2.1,0,0,0-.75.76,3.2,3.2,0,0,0-.39,1.14Z"/>
    </g>
  </g>
</svg>
